<svg width="23" height="21" viewBox="0 0 23 21" fill="none" xmlns="http://www.w3.org/2000/svg">
<path d="M3.14648 15.4531H7.86621L9.99316 18.0195C12.252 20.7441 14.9326 21.5791 17.9033 20.498C21.5244 19.1797 23.0098 15.9541 21.5771 12.0078L20.874 10.0742C20.2324 8.30762 19.0371 7.48145 17.6221 7.78027V3.71973C17.6221 1.90039 16.6816 0.96875 14.8359 0.96875H3.14648C1.30957 0.96875 0.369141 1.8916 0.369141 3.71973V12.7021C0.369141 14.5303 1.30957 15.4531 3.14648 15.4531ZM17.4551 19.1182C15.1523 19.9531 13.043 19.4961 11.0566 17.1318L8.10352 13.6426C8.02441 13.5459 7.96289 13.4668 7.91895 13.335C7.83105 13.0801 7.93652 12.7988 8.23535 12.6934C8.47266 12.6055 8.6748 12.6934 8.86816 12.8955L10.9336 14.9697C11.2764 15.3213 11.5928 15.3564 11.9092 15.2422C12.2783 15.1104 12.4629 14.7148 12.3047 14.2842L9.21973 5.79395C9.10547 5.47754 9.2373 5.1875 9.53613 5.07324C9.84375 4.96777 10.125 5.1084 10.2393 5.41602L12.4189 11.4014C12.5332 11.7178 12.9023 11.876 13.2188 11.7529C13.5352 11.6387 13.7109 11.2959 13.5879 10.9707L12.8145 8.85254C12.9287 8.74707 13.0781 8.65039 13.2275 8.59766C13.5879 8.46582 13.9043 8.62402 14.0361 9.00195L14.7393 10.918C14.8623 11.252 15.2227 11.3926 15.5303 11.2783C15.8379 11.1641 16.0225 10.8301 15.8994 10.4961L15.3633 9.01074C15.4688 8.90527 15.6182 8.80859 15.7676 8.75586C16.1279 8.62402 16.4443 8.78223 16.5762 9.16016L17.042 10.4346C17.165 10.7773 17.5342 10.9092 17.8506 10.7949C18.1582 10.6895 18.3428 10.3467 18.2197 10.0127L17.9121 9.17773C18.5801 8.94043 19.1865 9.45898 19.6084 10.6191L20.2412 12.333C21.4189 15.585 20.3467 18.0635 17.4551 19.1182Z" fill="#0A66C2"/>
</svg>
