<svg width="128" height="128" viewBox="0 0 128 128" fill="none" xmlns="http://www.w3.org/2000/svg">
<g clip-path="url(#clip0_1_18765)">
<path d="M105.56 59.304C105.704 50.8238 99.4642 43.7098 91.0447 42.7563C90.5239 42.6973 89.9932 42.663 89.4662 42.6535C86.4189 42.6023 83.4532 43.412 80.8859 44.9273L73.1972 26.6823C74.9872 26.745 76.7662 26.7895 78.1997 26.7085C82.0384 26.4983 84.1634 25.0638 84.5164 22.4398C84.7609 20.603 84.0839 18.1073 79.4592 16.647C79.1749 16.558 78.8822 16.4733 78.5829 16.3933C78.6229 16.3705 78.6632 16.3478 78.7027 16.3253C80.4024 15.3603 83.9404 13.3518 82.8054 9.70654C82.6022 9.04979 81.7064 6.88029 78.7074 6.54054C77.7334 6.43029 76.5319 6.51829 75.1259 6.80454C74.0894 7.01854 72.3792 7.46979 70.4237 8.37679C70.9879 5.00854 71.3459 1.89379 68.2412 0.419036C68.2157 0.407036 68.1907 0.395536 68.1652 0.384036C67.756 0.200036 67.3219 0.0805361 66.8752 0.0300361C63.3907 -0.364464 61.5192 3.22079 60.9077 4.39254C60.1002 5.93304 59.4567 7.75154 59.0264 9.68104C58.3707 9.37354 57.6989 9.09979 57.0162 8.86154C56.9982 8.85529 56.9807 8.84904 56.9627 8.84304C55.7017 8.42254 54.4947 8.14529 53.3752 8.01854L53.1537 7.99554C46.9194 7.37154 46.0027 10.9625 45.8739 12.0485C45.4424 15.4715 48.6064 16.9288 50.5254 17.8125C51.0707 18.0588 51.6822 18.3483 52.3482 18.675C51.3192 19.2065 50.3719 19.7978 49.5509 20.4255C45.1442 23.7825 46.2637 26.7593 46.9497 27.8835C46.9654 27.91 46.9819 27.936 46.9982 27.9615C47.7282 29.0998 48.9557 29.8445 50.3657 30.0043C51.5037 30.133 52.7119 29.8935 54.3189 29.4108L47.5962 43.1835C47.3839 43.4345 47.2002 43.7128 47.0507 44.015C44.6754 42.6255 41.9219 41.8458 39.0904 41.797C30.0634 41.6433 22.5939 48.8623 22.4402 57.89C22.3624 62.483 24.2332 66.8573 27.4762 69.9773C24.2472 77.5248 23.1157 84.3118 24.0204 90.6415C25.2869 99.5013 30.7757 107.24 39.0784 111.872C40.0869 112.435 41.1557 112.966 42.2747 113.462C42.2312 116.82 42.8632 119.813 44.1574 122.367C45.5944 125.201 48.1487 127.138 50.9902 127.548C51.0742 127.56 51.1587 127.571 51.2422 127.581C53.4954 127.836 55.4677 127.122 56.7554 126.562C58.9354 125.615 60.9822 124.289 62.7717 122.674C62.8187 122.676 62.8652 122.677 62.9117 122.677C62.9572 122.678 63.0027 122.679 63.0482 122.679C64.7819 124.354 66.7829 125.749 68.9292 126.769C70.3252 127.433 71.5399 127.806 72.7522 127.944C72.7527 127.944 72.7527 127.944 72.7527 127.944C73.3964 128.017 74.0367 128.019 74.6572 127.951C77.5132 127.636 80.1319 125.786 81.6622 123.004C83.0457 120.491 83.7797 117.513 83.8469 114.146C91.5227 111.023 97.1959 106.073 100.353 99.7083C101.531 97.3323 102.377 94.7325 102.867 91.982C103.986 85.687 103.086 78.8668 100.115 71.2125C103.462 68.2048 105.481 63.897 105.56 59.304Z" fill="white"/>
<path d="M66.4857 4.11453C66.1247 3.95228 65.3382 4.74603 64.5312 6.29228C63.7244 7.83103 62.9494 10.1415 62.6472 12.7865C62.3502 15.432 62.5889 17.8573 63.0309 19.5375C63.4714 21.225 64.0604 22.1748 64.4487 22.0973C65.2739 21.9148 65.0099 17.9048 65.5814 13.119C66.0949 8.32653 67.2492 4.47703 66.4857 4.11453Z" fill="#24BED0"/>
<path d="M78.897 10.9151C78.7785 10.5321 77.667 10.4626 75.9532 10.8113C74.251 11.1628 71.9082 11.9616 69.6242 13.5146C67.3342 15.0678 65.707 17.1088 64.959 18.7751C64.1905 20.4481 64.2122 21.6298 64.5775 21.7591C64.9742 21.9088 65.6307 21.0728 66.7052 19.9198C67.7705 18.7566 69.3252 17.2911 71.2905 15.9523C73.2605 14.6103 75.241 13.5906 76.683 12.7676C78.1262 11.9486 79.0197 11.3106 78.897 10.9151Z" fill="#24BED0"/>
<path d="M80.4608 21.8995C80.5148 21.4968 79.67 21.0038 78.2375 20.5518C76.806 20.1038 74.7705 19.6928 72.449 19.6068C71.289 19.5688 70.172 19.626 69.1625 19.7568C68.1523 19.8995 67.2508 20.1048 66.516 20.367C65.0405 20.8828 64.253 21.5208 64.3643 21.8998C64.4805 22.3028 65.4308 22.3915 66.8515 22.428C68.2768 22.4578 70.192 22.4808 72.3475 22.558C74.5023 22.6375 76.497 22.7075 77.976 22.6235C79.4543 22.5425 80.4063 22.305 80.4608 21.8995Z" fill="#24BED0"/>
<path d="M49.9327 12.5606C49.8797 12.9798 50.8067 13.4386 52.2085 14.0838C52.9125 14.4016 53.7309 14.7921 54.6214 15.2356C55.5064 15.6941 56.4605 16.2141 57.433 16.8116C58.3992 17.4191 59.2877 18.0446 60.0905 18.6351C60.8822 19.2376 61.5947 19.7986 62.1912 20.2891C63.3902 21.2603 64.2117 21.8883 64.5642 21.6556C64.8919 21.4423 64.6697 20.3676 63.7622 18.9138C63.3132 18.1861 62.6752 17.3891 61.8785 16.5843C61.072 15.7921 60.1007 14.9998 58.9917 14.3038C57.8767 13.6173 56.7365 13.0971 55.669 12.7246C54.5947 12.3663 53.5975 12.1471 52.7462 12.0666C51.041 11.8958 49.9787 12.1721 49.9327 12.5606Z" fill="#24BED0"/>
<path d="M65.656 20.8928C65.6277 20.4941 64.6882 20.1746 63.1602 20.1246C61.637 20.0726 59.5297 20.3266 57.317 21.0316C55.1055 21.7401 53.2412 22.7546 52.0302 23.6801C50.814 24.6066 50.2337 25.4118 50.442 25.7531C50.894 26.4578 54.166 25.1181 58.2157 23.8446C62.2535 22.5343 65.6962 21.7291 65.656 20.8928Z" fill="#24BED0"/>
<path d="M64.6558 17.2778L62.2018 22.3053L61.4125 26.5751L58.81 29.2538L50.7198 45.8286L50.0203 49.0786L45.8693 55.7658L66.5345 64.1821L82.4673 59.5423L78.4605 50.0348L75.6688 47.0551L75.4255 42.8331L72.755 36.4963L69.8048 32.5326L69.578 28.9578L64.6558 17.2778Z" fill="#FEE600"/>
<path d="M59.5238 44.7145C57.8338 44.3745 56.5432 42.7323 56.4777 41.0095C56.424 39.593 57.1913 37.9748 58.4113 37.205C62.085 34.8875 65.9217 38.6463 64.478 42.3428C64.1935 43.0715 63.7552 43.7795 63.0762 44.1683C62.7632 44.3475 62.413 44.4508 62.0635 44.539C61.234 44.7488 60.363 44.8833 59.5238 44.7145ZM68.1472 56.534C67.8627 57.2628 67.4245 57.9708 66.7455 58.3595C66.4325 58.5388 66.0823 58.642 65.7328 58.7303C64.903 58.94 64.032 59.0745 63.193 58.9058C61.503 58.5658 60.2125 56.9235 60.147 55.2008C60.0933 53.7843 60.8605 52.166 62.0805 51.3963C65.7543 49.0788 69.591 52.8375 68.1472 56.534Z" fill="#EA62AE"/>
<path d="M67.3669 32.9231C67.4322 34.6459 68.7229 36.2881 70.4129 36.6281C71.1859 36.7836 71.9847 36.6776 72.7549 36.4966L69.5779 28.9581C69.4854 29.0089 69.3929 29.0604 69.3004 29.1189C68.0804 29.8884 67.3132 31.5066 67.3669 32.9231Z" fill="#EA62AE"/>
<path d="M49.7779 51.735C50.4569 51.3463 50.8952 50.6383 51.1797 49.9095C51.7589 48.4263 51.4869 46.9343 50.7177 45.8275L47.5442 52.3293C47.9554 52.2888 48.3652 52.207 48.7654 52.106C49.1149 52.0175 49.4652 51.9143 49.7779 51.735Z" fill="#EA62AE"/>
<path d="M71.2782 47.3459C71.3434 49.0686 72.6339 50.7109 74.3242 51.0509C75.1632 51.2196 76.0342 51.0851 76.8639 50.8754C77.2137 50.7869 77.5637 50.6836 77.8767 50.5046C78.0962 50.3789 78.2882 50.2174 78.4602 50.0351L75.4252 42.8334C74.7107 42.8539 73.9582 43.0706 73.2117 43.5416C71.9917 44.3114 71.2244 45.9296 71.2782 47.3459Z" fill="#EA62AE"/>
<path d="M61.599 28.6371C62.278 28.2483 62.7162 27.5403 63.0007 26.8116C63.6582 25.1281 63.2185 23.4338 62.1997 22.3043L58.808 29.2528C59.4042 29.2581 60.005 29.1548 60.586 29.0078C60.936 28.9196 61.286 28.8163 61.599 28.6371Z" fill="#EA62AE"/>
<path d="M101.469 59.2343C101.585 52.4516 96.18 46.8596 89.3972 46.7443C83.0702 46.6366 77.7812 51.3331 77.0052 57.4701C74.935 57.5528 72.8145 57.2538 70.748 57.1861C66.715 57.0536 62.5512 56.4526 58.515 56.6486C55.997 56.7708 53.5857 57.2168 51.041 57.0286C50.4742 50.8688 45.348 45.9951 39.021 45.8876C32.2382 45.7721 26.6462 51.1771 26.531 57.9598C26.4532 62.5281 28.8817 66.5533 32.5465 68.7318C29.3095 75.3623 27.027 82.7608 28.0705 90.0626C29.2085 98.0258 34.1252 104.424 41.0717 108.3C50.6567 113.647 63.9107 114.803 74.5582 112.662C83.5015 110.864 92.4712 106.393 96.6877 97.8918C97.7237 95.8028 98.431 93.5606 98.839 91.2666C100.13 84.0046 98.1007 76.5326 95.091 69.7958C98.8277 67.7428 101.392 63.8026 101.469 59.2343Z" fill="#14B9A1"/>
<path d="M55.2318 65.1445C55.2215 65.2838 55.2123 65.4235 55.21 65.565C55.1723 67.7918 55.9748 69.8375 57.3255 71.399C58.887 73.2045 68.663 73.3705 70.2853 71.6193C71.688 70.1045 72.5598 68.0875 72.5978 65.861C72.6 65.7195 72.5958 65.5798 72.5903 65.44L55.2318 65.1445Z" fill="#622A81"/>
<path d="M63.7558 74.4066C66.3305 74.4503 68.6558 73.3638 70.278 71.6123C69.0203 69.3528 66.6303 67.8043 63.859 67.7608C61.0948 67.7176 58.663 69.1831 57.3328 71.3923C58.8945 73.1981 61.1813 74.3628 63.7558 74.4066Z" fill="#EA62AE"/>
<path d="M40.0138 57.2021C39.9773 59.3531 38.984 61.0803 37.7958 61.0601C36.6073 61.0398 35.6735 59.2798 35.7103 57.1288C35.7468 54.9778 36.74 53.2506 37.9283 53.2708C39.1165 53.2911 40.0503 55.0513 40.0138 57.2021Z" fill="#622A81"/>
<path d="M91.9358 58.0855C91.8993 60.2365 90.906 61.9637 89.7175 61.9435C88.529 61.9232 87.5953 60.1632 87.632 58.0122C87.6685 55.8612 88.6618 54.134 89.85 54.1542C91.0388 54.1742 91.9723 55.9345 91.9358 58.0855Z" fill="#622A81"/>
<path d="M47.9108 83.3061C51.3315 79.8854 51.3315 74.3392 47.9108 70.9185C44.49 67.4977 38.9438 67.4977 35.5231 70.9185C32.1023 74.3392 32.1023 79.8854 35.5231 83.3062C38.9438 86.7269 44.49 86.7269 47.9108 83.3061Z" fill="#EA62AE"/>
<path d="M92.1287 83.7999C95.4068 80.2422 95.1801 74.7007 91.6224 71.4227C88.0648 68.1446 82.5233 68.3713 79.2453 71.929C75.9672 75.4867 76.1939 81.0281 79.7515 84.3062C83.3092 87.5842 88.8507 87.3575 92.1287 83.7999Z" fill="#EA62AE"/>
<path d="M64.138 113.334L64.2835 113.022L64.003 113.017L62.5318 109.56C60.7445 106.992 58.2783 104.901 55.4525 103.557C54.3498 103.033 53.143 102.614 51.9295 102.748C50.2738 102.93 48.8633 104.141 48.0603 105.601C46.814 107.865 46.374 110.445 46.3775 113.032C46.286 115.618 46.638 118.211 47.8065 120.517C48.5595 122.002 49.928 123.261 51.5765 123.5C52.7848 123.674 54.0053 123.297 55.125 122.81C57.995 121.564 60.5308 119.558 62.4045 117.052L63.9925 113.647L64.273 113.652L64.138 113.334Z" fill="#F7931C"/>
<path d="M62.0006 113.297L61.8656 112.98L62.1461 112.985L63.7341 109.58C65.6079 107.074 68.1436 105.068 71.0136 103.822C72.1333 103.335 73.3539 102.958 74.5624 103.132C76.2109 103.371 77.5794 104.629 78.3324 106.115C79.5009 108.421 79.8529 111.014 79.7614 113.6C79.7649 116.187 79.3249 118.767 78.0786 121.031C77.2754 122.491 75.8649 123.702 74.2094 123.884C72.9959 124.018 71.7889 123.599 70.6864 123.075C67.8606 121.731 65.3944 119.64 63.6069 117.072L62.1356 113.615L61.8551 113.61L62.0006 113.297Z" fill="#F7931C"/>
<path d="M73.2788 108.06C73.2515 107.912 71.0795 108.296 68.7123 109.579C66.3375 110.847 64.8205 112.448 64.929 112.553C65.045 112.685 66.692 111.326 68.992 110.099C71.2833 108.855 73.325 108.23 73.2788 108.06Z" fill="#AD6612"/>
<path d="M73.5558 113.333C73.5435 113.171 71.5758 113.235 69.1603 113.478C66.745 113.72 64.8035 114.048 64.8238 114.21C64.8443 114.372 66.812 114.307 69.2193 114.066C71.6265 113.824 73.568 113.496 73.5558 113.333Z" fill="#AD6612"/>
<path d="M72.7383 118.559C72.7445 118.381 70.857 118.302 68.746 117.446C66.6245 116.616 65.1993 115.376 65.0813 115.51C65.0298 115.565 65.3212 115.952 65.9155 116.455C66.5072 116.957 67.4197 117.552 68.5275 117.995C69.6365 118.434 70.7083 118.63 71.4833 118.671C72.2603 118.715 72.7378 118.634 72.7383 118.559Z" fill="#AD6612"/>
<path d="M52.4508 107.706C52.3988 107.874 54.4181 108.569 56.6656 109.889C58.9226 111.194 60.5223 112.608 60.6428 112.48C60.7548 112.379 59.2931 110.728 56.9631 109.379C54.6408 108.016 52.4831 107.559 52.4508 107.706Z" fill="#AD6612"/>
<path d="M51.9945 112.966C51.9768 113.128 53.906 113.522 56.3035 113.845C58.701 114.169 60.6655 114.3 60.6915 114.139C60.7175 113.978 58.7883 113.584 56.3825 113.26C53.9768 112.936 52.0123 112.804 51.9945 112.966Z" fill="#AD6612"/>
<path d="M52.634 118.217C52.632 118.292 53.1065 118.389 53.8845 118.372C54.6603 118.357 55.7383 118.198 56.8615 117.796C57.9838 117.391 58.916 116.828 59.5243 116.346C60.1355 115.864 60.4398 115.487 60.3903 115.43C60.2768 115.293 58.8103 116.483 56.6618 117.24C54.5228 118.024 52.6338 118.039 52.634 118.217Z" fill="#AD6612"/>
<path d="M68.3403 113.405C68.2908 116.316 65.8905 118.636 62.9795 118.587C60.0683 118.537 57.7485 116.137 57.798 113.226C57.8475 110.315 60.2478 107.995 63.1588 108.044C66.07 108.094 68.3898 110.494 68.3403 113.405Z" fill="#FEE600"/>
<path d="M48.7802 96.864C47.0615 96.0335 43.6802 97.3057 43.7902 99.5275C43.8382 100.492 44.5172 101.363 45.3925 101.772C46.2677 102.18 47.303 102.163 48.2202 101.861C49.0002 101.604 49.742 101.117 50.115 100.386C50.7502 99.1397 50.0397 97.4725 48.7802 96.864Z" fill="#14AD90"/>
<path d="M58.3767 103.267C58.9467 103.663 59.5802 104.016 60.2727 104.063C61.034 104.115 61.8112 103.764 62.2757 103.159C62.7402 102.553 62.878 101.712 62.6307 100.99C62.468 100.515 62.1535 100.103 61.7797 99.7672C60.5835 98.6937 58.243 98.0572 56.641 98.3287C53.086 98.9314 56.937 102.266 58.3767 103.267Z" fill="#14AD90"/>
<path d="M54.7147 94.7875C55.3907 94.4975 55.8967 93.7342 55.7062 93.024C55.5587 92.4745 55.0524 92.0915 54.5254 91.8765C53.5027 91.4592 51.0267 92.0815 50.8047 93.3847C50.5324 94.9832 53.7647 95.195 54.7147 94.7875Z" fill="#14AD90"/>
<path d="M73.5017 100.283C74.0232 99.7007 74.3097 98.8387 74.002 98.1202C73.8145 97.6827 73.4362 97.3549 73.0325 97.1029C72.3827 96.6977 71.5852 96.4479 70.847 96.6509C70.2617 96.8119 69.7885 97.2319 69.3445 97.6457C68.5742 98.3634 67.823 99.1014 67.0917 99.8584C65.8755 101.117 67.3495 101.576 68.4497 101.792C70.3685 102.17 72.1952 101.742 73.5017 100.283Z" fill="#14AD90"/>
<path d="M65.8087 92.6647C64.5497 92.1269 62.6262 91.8302 61.3567 92.4759C60.0585 93.1359 59.7125 94.2487 60.9287 95.2547C62.3312 96.4144 64.433 96.6477 66.0555 95.8229C66.6362 95.5279 67.1987 95.0297 67.2357 94.3794C67.2805 93.5872 66.5382 92.9764 65.8087 92.6647Z" fill="#14AD90"/>
<path d="M82.4387 101.864C83.2 100.509 83.116 97.736 81.5722 96.84C80.0837 95.9763 78.541 98.0188 78.061 99.239C77.58 100.461 77.454 102.034 78.4205 102.924C79.0067 103.463 79.898 103.608 80.6592 103.372C81.4202 103.137 82.0485 102.558 82.4387 101.864Z" fill="#14AD90"/>
<path d="M76.2107 95.657C80.1875 94.1215 70.4888 89.895 71.578 93.7612C71.6878 94.151 72.0405 94.4155 72.375 94.6437C73.5135 95.4202 74.925 96.153 76.2107 95.657Z" fill="#14AD90"/>
</g>
<defs>
<clipPath id="clip0_1_18765">
<rect width="128" height="128" fill="white"/>
</clipPath>
</defs>
</svg>
