<svg width="12" height="15" viewBox="0 0 12 15" fill="none" xmlns="http://www.w3.org/2000/svg">
<path d="M1.63172 14.9668H3.69715C4.53211 14.9668 4.96278 14.5361 4.96278 13.7012V1.60742C4.96278 0.754883 4.53211 0.350586 3.69715 0.341797H1.63172C0.796763 0.341797 0.366099 0.772461 0.366099 1.60742V13.7012C0.35731 14.5361 0.787974 14.9668 1.63172 14.9668ZM8.31141 14.9668H10.3681C11.203 14.9668 11.6337 14.5361 11.6337 13.7012V1.60742C11.6337 0.754883 11.203 0.341797 10.3681 0.341797H8.31141C7.46766 0.341797 7.04579 0.772461 7.04579 1.60742V13.7012C7.04579 14.5361 7.46766 14.9668 8.31141 14.9668Z" fill="#1C1C1E"/>
</svg>
