<svg width="20" height="15" viewBox="0 0 20 15" fill="none" xmlns="http://www.w3.org/2000/svg">
<path d="M3.50195 14.625C4.3457 14.625 4.76758 14.1943 4.76758 13.3594V1.26562C4.76758 0.430664 4.33691 0 3.50195 0H1.44531C0.601562 0 0.179688 0.413086 0.179688 1.26562V13.3594C0.179688 14.1943 0.601562 14.625 1.44531 14.625H3.50195ZM8.81934 14.3877C9.20605 14.3877 9.54004 14.2734 9.91797 14.0537L18.9268 8.7627C19.5859 8.37598 19.9287 7.90137 19.9287 7.30371C19.9287 6.71484 19.5947 6.25781 18.9268 5.8623L9.91797 0.571289C9.54004 0.351562 9.20605 0.237305 8.81934 0.237305C8.0459 0.237305 7.39551 0.817383 7.39551 1.88965V12.7354C7.39551 13.8076 8.0459 14.3877 8.81934 14.3877Z" fill="#1C1C1E"/>
</svg>
