<svg width="20" height="17" viewBox="0 0 20 17" fill="none" xmlns="http://www.w3.org/2000/svg">
<path d="M0.129883 7.89844C0.129883 8.50488 0.62207 8.99707 1.22852 8.99707C1.84375 8.99707 2.32715 8.50488 2.32715 7.89844V7.32715C2.32715 5.89453 3.31152 4.97168 4.80566 4.97168H11.4062V6.80859C11.4062 7.33594 11.7402 7.66992 12.2764 7.66992C12.5137 7.66992 12.7334 7.58203 12.9092 7.44141L16.3721 4.55859C16.8027 4.21582 16.7939 3.63574 16.3721 3.28418L12.9092 0.392578C12.7334 0.243164 12.5137 0.155273 12.2764 0.155273C11.7402 0.155273 11.4062 0.489258 11.4062 1.0166V2.80957H4.98145C2.00195 2.80957 0.129883 4.4707 0.129883 7.11621V7.89844ZM8.59375 10.3066C8.59375 9.7793 8.25977 9.43652 7.73242 9.43652C7.49512 9.43652 7.2666 9.5332 7.09082 9.67383L3.63672 12.5566C3.20605 12.8994 3.20605 13.4707 3.63672 13.8311L7.09082 16.7227C7.2666 16.8721 7.49512 16.96 7.73242 16.96C8.25977 16.96 8.59375 16.626 8.59375 16.0986V14.2969H15.0273C18.0068 14.2969 19.8701 12.627 19.8701 9.99023V9.20801C19.8701 8.59277 19.3867 8.10059 18.7715 8.10059C18.165 8.10059 17.6729 8.59277 17.6729 9.20801V9.7793C17.6729 11.2031 16.6973 12.1348 15.1943 12.1348H8.59375V10.3066Z" fill="#1C1C1E"/>
</svg>
