<svg width="20" height="16" viewBox="0 0 20 16" fill="none" xmlns="http://www.w3.org/2000/svg">
<path d="M0 8.00516C0 8.31464 0.134107 8.62411 0.371373 8.85106L7.17988 15.6493C7.42747 15.8865 7.69568 16 7.99484 16C8.64474 16 9.11928 15.5358 9.11928 14.9065C9.11928 14.5764 8.99549 14.2979 8.77885 14.0916L6.45777 11.7395L3.46615 9.0058L5.86976 9.15023H18.3727C19.0535 9.15023 19.528 8.67569 19.528 8.00516C19.528 7.32431 19.0535 6.84977 18.3727 6.84977H5.86976L3.47647 6.9942L6.45777 4.26048L8.77885 1.90845C8.99549 1.70213 9.11928 1.4236 9.11928 1.09349C9.11928 0.464217 8.64474 0 7.99484 0C7.69568 0 7.41715 0.113475 7.14894 0.371373L0.371373 7.14894C0.134107 7.37589 0 7.68536 0 8.00516Z" fill="#1C1C1E"/>
</svg>
