<svg width="20" height="15" viewBox="0 0 20 15" fill="none" xmlns="http://www.w3.org/2000/svg">
<path d="M16.4268 14.9668H18.4834C19.3271 14.9668 19.749 14.5361 19.749 13.7012V1.60742C19.749 0.754883 19.3271 0.341797 18.4834 0.341797H16.4268C15.583 0.341797 15.1611 0.772461 15.1611 1.60742V13.7012C15.1611 14.5361 15.583 14.9668 16.4268 14.9668ZM11.1094 14.7295C11.8828 14.7295 12.5332 14.1494 12.5332 13.0771V2.23145C12.5332 1.15918 11.8828 0.579102 11.1094 0.579102C10.7227 0.579102 10.3887 0.693359 10.0107 0.913086L1.00195 6.2041C0.333984 6.59961 0 7.05664 0 7.64551C0 8.24316 0.342773 8.71777 1.00195 9.10449L10.0107 14.3955C10.3887 14.6152 10.7227 14.7295 11.1094 14.7295Z" fill="#1C1C1E"/>
</svg>
