<svg width="96" height="96" viewBox="0 0 96 96" fill="none" xmlns="http://www.w3.org/2000/svg">
<circle cx="48" cy="48" r="48" fill="black"/>
<path d="M30.1196 51.9658C30.1196 55.13 31.8544 57.9698 34.8901 60.059V62.0062C33.8963 62.3713 33.2819 63.345 33.2819 64.6837V70.14C33.2819 71.8641 34.2938 73 35.8298 73H36.5887C38.1247 73 39.1366 71.8641 39.1366 70.14V64.6837C39.1366 63.3652 38.5403 62.3713 37.5645 62.0062V61.5397C40.4015 62.8176 43.9613 63.5681 47.991 63.5681C58.6162 63.5681 65.8804 58.416 65.8804 51.9658V42.8787L71.0123 40.2418C72.2953 39.5724 73 38.2946 73 36.9153C73 35.5563 72.2953 34.2581 71.0123 33.609L53.1409 24.4408C51.1713 23.4469 49.5811 22.9803 47.991 23.0006C46.4189 22.9803 44.8287 23.4469 42.841 24.4408L24.9877 33.609C23.6867 34.2581 23 35.5563 23 36.9153C23 38.2946 23.6867 39.5724 24.9877 40.2418L30.1196 42.8787V51.9658ZM47.991 46.8543C46.8345 46.8543 45.7322 46.5297 44.2324 45.7387L39.4257 43.3046L46.3104 39.2479C46.8525 39.4102 47.4489 39.5116 48.0632 39.5116C50.1232 39.5116 52.1109 38.4365 52.1109 36.9153C52.1109 35.4346 50.1232 34.3798 48.0632 34.3798C45.9852 34.3798 43.9794 35.4346 43.9794 36.9153C43.9794 37.1181 44.0155 37.3007 44.0697 37.4629L36.5526 41.8239L28.1319 37.5238C27.8428 37.3818 27.6982 37.179 27.6982 36.9153C27.6982 36.6719 27.8428 36.4487 28.1319 36.3068L44.2324 28.0918C45.7322 27.3211 46.8345 26.9762 47.991 26.9762C49.1475 26.9762 50.2497 27.3211 51.7676 28.0918L67.8681 36.3068C68.1391 36.4487 68.2837 36.6719 68.2837 36.9153C68.2837 37.179 68.1391 37.3818 67.8681 37.5238L51.7676 45.7387C50.2497 46.5297 49.1475 46.8543 47.991 46.8543ZM33.6072 51.9658V44.6636L34.8901 45.3127V55.272C34.0408 54.2376 33.6072 53.122 33.6072 51.9658ZM47.991 50.8502C49.5811 50.8705 51.1713 50.4039 53.1409 49.3898L62.3928 44.6636V51.9658C62.3928 56.0834 56.6827 59.8764 47.991 59.8764C43.6722 59.8764 40.0763 58.9231 37.5645 57.4627V46.692L42.841 49.3898C44.8287 50.4039 46.4189 50.8705 47.991 50.8502Z" fill="white"/>
</svg>
