<svg width="24" height="20" viewBox="0 0 24 20" fill="none" xmlns="http://www.w3.org/2000/svg">
<path d="M3.29004 14.9189H4.9248V16.2461C4.9248 18.127 5.91797 19.1113 7.8252 19.1113H20.7012C22.5996 19.1113 23.6016 18.127 23.6016 16.2461V7.27246C23.6016 5.3916 22.5996 4.40723 20.7012 4.40723H19.0664V3.08887C19.0664 1.20801 18.0732 0.223633 16.1748 0.223633H3.29004C1.38281 0.223633 0.398438 1.20801 0.398438 3.08887V12.0537C0.398438 13.9434 1.38281 14.9189 3.29004 14.9189ZM3.4043 13.1699C2.5957 13.1699 2.14746 12.748 2.14746 11.8955V3.24707C2.14746 2.39453 2.5957 1.98145 3.4043 1.98145H16.0605C16.8604 1.98145 17.3174 2.39453 17.3174 3.24707V4.40723H7.8252C5.91797 4.40723 4.9248 5.3916 4.9248 7.27246V13.1699H3.4043ZM7.93945 17.3535C7.12207 17.3535 6.68262 16.9316 6.68262 16.0879V7.43066C6.68262 6.58691 7.12207 6.16504 7.93945 6.16504H20.5869C21.3955 6.16504 21.8438 6.58691 21.8438 7.43066V16.0879C21.8438 16.9316 21.3955 17.3535 20.5869 17.3535H7.93945Z" fill="#1C1C1E"/>
</svg>
