<svg width="27" height="29" viewBox="0 0 27 29" fill="none" xmlns="http://www.w3.org/2000/svg">
 <g>
  <g id="svg_5">
   <path id="svg_1" fill="#1C1C1E" d="m2.32111,23.9433l5.69223,0c0.09671,2.6251 2.25206,5.0567 5.42976,5.0567c3.1639,0 5.333,-2.404 5.4435,-5.0567l5.6784,0c1.4369,0 2.3211,-0.7875 2.3211,-1.9757c0,-1.4783 -1.3401,-2.7356 -2.5974,-3.9376c-0.9809,-0.9533 -1.2158,-2.8599 -1.3954,-4.808c-0.1934,-5.20866 -1.727,-8.69032 -5.3192,-9.98903c-0.5388,-1.83754 -2.0724,-3.23297 -4.131,-3.23297c-2.0586,0 -3.59222,1.39543 -4.11723,3.23297c-3.606,1.29871 -5.12577,4.78037 -5.33302,9.98903c-0.17961,1.9481 -0.41448,3.8547 -1.39542,4.808c-1.25727,1.202 -2.59743,2.4593 -2.59743,3.9376c0,1.1882 0.88423,1.9757 2.32111,1.9757zm1.05002,-2.5698l0,-0.1658c0.35922,-0.4006 1.16055,-1.1329 1.83754,-1.9066c0.95331,-1.0915 1.39543,-3.1086 1.53359,-5.7337c0.16579,-5.54024 1.87899,-7.40542 4.08954,-7.99951c0.3454,-0.09671 0.525,-0.26251 0.5527,-0.63554c0.0691,-1.39543 0.8566,-2.33492 2.0586,-2.33492c1.2158,0 1.9895,0.93949 2.0586,2.33492c0.0276,0.37303 0.221,0.53883 0.5526,0.63554c2.2244,0.59409 3.9238,2.45927 4.0896,7.99951c0.152,2.6251 0.5941,4.6422 1.5336,5.7337c0.677,0.7737 1.4507,1.506 1.8099,1.9066l0,0.1658l-20.11627,0zm10.07197,5.4021c-1.5613,0 -2.6804,-1.1191 -2.7771,-2.8323l5.5679,0c-0.0829,1.6994 -1.2158,2.8323 -2.7908,2.8323z"/>
   <ellipse ry="5" rx="5" id="svg_4" cy="5.58507" cx="21.39211" stroke="#ff2d55" fill="#ff2d55"/>
  </g>
 </g>
</svg>