<svg width="27" height="29" viewBox="0 0 27 29" fill="none" xmlns="http://www.w3.org/2000/svg">
<path d="M2.32111 23.9433H8.01334C8.11005 26.5684 10.2654 29 13.4431 29C16.607 29 18.7761 26.596 18.8866 23.9433H24.565C26.0019 23.9433 26.8861 23.1558 26.8861 21.9676C26.8861 20.4893 25.546 19.232 24.2887 18.03C23.3078 17.0767 23.0729 15.1701 22.8933 13.222C22.6999 8.01334 21.1663 4.53168 17.5741 3.23297C17.0353 1.39543 15.5017 0 13.4431 0C11.3845 0 9.85088 1.39543 9.32587 3.23297C5.71987 4.53168 4.2001 8.01334 3.99285 13.222C3.81324 15.1701 3.57837 17.0767 2.59743 18.03C1.34016 19.232 0 20.4893 0 21.9676C0 23.1558 0.884231 23.9433 2.32111 23.9433ZM3.37113 21.3735V21.2077C3.73035 20.8071 4.53168 20.0748 5.20867 19.3011C6.16198 18.2096 6.6041 16.1925 6.74226 13.5674C6.90805 8.02716 8.62125 6.16198 10.8318 5.56789C11.1772 5.47118 11.3568 5.30538 11.3845 4.93235C11.4536 3.53692 12.2411 2.59743 13.4431 2.59743C14.6589 2.59743 15.4326 3.53692 15.5017 4.93235C15.5293 5.30538 15.7227 5.47118 16.0543 5.56789C18.2787 6.16198 19.9781 8.02716 20.1439 13.5674C20.2959 16.1925 20.738 18.2096 21.6775 19.3011C22.3545 20.0748 23.1282 20.8071 23.4874 21.2077V21.3735H3.37113ZM13.4431 26.7756C11.8818 26.7756 10.7627 25.6565 10.666 23.9433H16.2339C16.151 25.6427 15.0181 26.7756 13.4431 26.7756Z" fill="#1C1C1E"/>
</svg>
