<svg width="256" height="245" viewBox="0 0 256 245" fill="none" xmlns="http://www.w3.org/2000/svg">
<path d="M254.91 61.7107C254.217 60.7082 252.579 59.0262 249.391 59.0262C248.75 59.0262 248.092 59.1027 247.43 59.2267C246.811 58.2107 246.153 57.1442 245.463 56.0432C245.082 55.1362 244.593 54.3667 244.003 53.7402C239.64 46.9302 234.331 39.3347 229.657 34.5972C220.277 23.6011 206.499 16.0151 193.219 11.2156C163.421 0.446596 130.854 -2.84191 99.5306 2.5471C81.1825 5.70361 62.737 11.5281 46.796 21.3751C42.2245 24.1986 37.7544 26.5307 33.8079 29.8342L33.8069 29.8332C33.8069 29.8332 18.2159 40.8147 11.3044 54.7627C10.8849 55.4122 10.5414 56.1657 10.2724 57.0117C10.2689 57.0202 10.2649 57.0282 10.2614 57.0367L10.2629 57.0402C10.0339 57.7662 9.85788 58.5577 9.74238 59.4182C8.67938 59.1167 7.60638 58.9317 6.57487 58.9317C3.45487 58.9317 1.82586 60.5717 1.13286 61.5492C-1.78364 65.6622 1.00986 71.3328 8.60488 76.7188C9.87088 77.6163 11.1574 78.4108 12.4204 79.0778C14.7879 98.2978 23.5864 113.429 36.9464 121.292C37.6774 125.423 39.8815 129.218 43.1495 131.82C45.7715 133.907 48.73 135.25 51.8195 135.771C51.8065 136.702 51.846 137.615 51.938 138.501C52.2765 141.756 53.3335 144.774 55.079 147.469C58.581 152.874 64.501 156.448 70.9165 157.029C71.448 157.077 71.9855 157.101 72.515 157.101C73.0185 157.101 73.516 157.079 74.006 157.036C74.095 157.764 74.215 158.491 74.366 159.217C74.4615 159.677 74.5605 160.099 74.668 160.509L74.696 160.616C74.785 160.956 74.876 161.295 74.982 161.635C75.288 162.614 75.673 163.539 76.1345 164.406C71.5815 174.203 64.449 194.217 67.796 218.24C57.3365 218.544 50.3145 222.92 47.964 230.639L45.8205 237.678L82.8245 234.11L88.7786 233.529L87.0666 227.796C86.9721 227.478 78.0285 196.674 92.3081 172.123C95.1516 171.833 98.1616 171.029 101.455 169.685C101.584 169.632 101.779 169.557 102.023 169.462C102.103 169.431 102.186 169.399 102.273 169.366C102.439 170.217 102.653 171.07 102.911 171.905C103.001 172.195 103.094 172.482 103.194 172.767C103.433 173.449 103.697 174.113 103.978 174.737C104.012 174.817 104.046 174.896 104.08 174.968C104.609 176.11 105.243 177.231 105.965 178.3C106.088 178.481 106.213 178.66 106.338 178.834C106.838 179.531 107.329 180.15 107.842 180.726C108.182 181.108 108.54 181.481 108.905 181.835C112.94 185.747 118.415 187.901 124.324 187.901C124.482 187.901 124.64 187.899 124.798 187.896C125.864 187.874 126.974 187.772 128.098 187.591C128.642 187.503 129.198 187.392 129.75 187.262C131.292 186.899 132.778 186.386 134.178 185.735C134.258 185.7 134.335 185.666 134.397 185.635C136.68 184.541 138.696 183.105 140.408 181.357C141.878 183.029 143.647 184.478 145.624 185.606C146.092 185.873 146.578 186.125 147.078 186.363C152.442 197.757 159.624 207.616 168.488 215.759C167.541 216.587 166.557 217.529 165.613 218.571C160.045 224.719 158.424 231.594 161.048 237.929L163.865 244.727L190.177 218.465L194.406 214.235L189.443 210.894C189.299 210.798 176.67 202.19 167.348 187.725C171.228 186.681 174.627 184.917 177.367 182.501C178.565 181.443 179.64 180.237 180.561 178.913C181.682 177.303 182.55 175.543 183.136 173.729C183.407 173.828 183.678 173.923 183.951 174.013C184.305 174.13 184.661 174.237 185.018 174.34C187.446 175.036 189.909 175.39 192.336 175.39C195.868 175.39 199.175 174.654 202.168 173.201C202.755 172.916 203.332 172.601 203.886 172.265C207.508 170.061 210.366 166.515 211.935 162.278C212.733 160.121 213.16 157.899 213.203 155.671L213.209 155.571L213.206 155.42C213.209 154.818 213.183 154.208 213.128 153.604C213.084 153.125 213.017 152.633 212.922 152.101C212.873 151.826 212.818 151.552 212.756 151.284C212.714 151.097 212.668 150.911 212.619 150.725C213.2 150.479 213.775 150.204 214.339 149.904L214.385 149.88C219.824 146.969 223.871 141.801 225.212 136.055C226.583 130.181 225.156 123.84 221.668 118.926C224.886 116.681 227.805 113.986 230.404 110.859C230.804 110.939 231.219 110.981 231.643 110.981C233.572 110.981 235.449 110.094 236.667 108.61C237.866 107.147 238.337 105.231 237.961 103.351C237.755 102.324 237.479 101.328 237.136 100.371C239.937 94.6448 241.952 88.1008 243.089 81.1398L245.694 77.8033C246.215 77.4818 246.735 77.1468 247.252 76.7898C254.912 71.4958 257.775 65.8592 254.91 61.7107Z" fill="white"/>
<path d="M83.8245 160.337C83.8245 160.337 66.2075 188.147 73.7095 223.471C73.7095 223.471 56.177 220.565 52.673 232.072L82.3525 229.21C82.3525 229.21 70.048 188.407 94.5296 160.669" fill="#7A32BC"/>
<path d="M144.086 160.854C144.086 160.854 148.147 193.524 176.38 216.039C176.38 216.039 160.993 224.932 165.596 236.045L186.7 214.981C186.7 214.981 151.277 191.285 152.563 154.31" fill="#7A32BC"/>
<path d="M250.86 64.5087C249.878 63.0877 245.423 64.4632 240.905 67.5822C240.936 67.4357 240.968 67.2917 240.997 67.1427C242.032 61.7467 241.494 57.1087 239.797 56.7832C238.099 56.4577 235.884 60.5677 234.849 65.9637C234.825 66.0857 234.807 66.2047 234.785 66.3257C234.713 66.1812 234.645 66.0382 234.57 65.8932C232.04 61.0162 228.745 57.7082 227.21 58.5042C225.676 59.3002 226.483 63.8992 229.013 68.7762C230.367 71.3852 231.936 73.5313 233.34 74.8538C231.724 92.4468 223.596 110.203 205.181 115.137C201.704 116.069 203.146 121.47 206.633 120.535C227.266 115.006 236.856 95.5373 238.848 75.7453C240.515 75.1348 242.479 74.1038 244.454 72.7393C248.975 69.6152 251.843 65.9312 250.86 64.5087Z" fill="#7A32BC"/>
<path d="M50.2005 115.581C31.8479 110.421 23.9384 92.5663 22.5384 74.9548C23.9589 73.6498 25.5544 71.5233 26.9399 68.9312C29.5299 64.0857 30.3934 59.4972 28.8689 58.6822C27.3444 57.8672 24.0089 61.1352 21.4194 65.9807C21.3424 66.1247 21.2724 66.2672 21.1984 66.4102C21.1784 66.2887 21.1614 66.1697 21.1394 66.0477C20.1709 60.6397 18.0064 56.5022 16.3049 56.8072C14.6034 57.1122 14.0094 61.7432 14.9779 67.1512C15.0044 67.3007 15.0354 67.4447 15.0639 67.5917C10.5854 64.4177 6.14686 62.9872 5.14736 64.3962C4.14736 65.8062 6.97036 69.5257 11.4519 72.7038C13.4099 74.0923 15.3609 75.1478 17.0204 75.7788C18.7684 95.5938 28.1184 115.179 48.682 120.961C52.157 121.938 53.6655 116.556 50.2005 115.581Z" fill="#7A32BC"/>
<path d="M210.241 71.3302C213.179 76.2428 214.213 85.9558 209.588 90.2573C215.568 91.2593 220.561 96.5513 221.215 102.579C221.869 108.607 218.126 114.847 212.5 117.108C218.607 120.487 222.006 128.138 220.42 134.935C218.833 141.732 212.399 147.087 205.427 147.414C210.775 153.373 208.169 163.898 201.328 168.059C194.488 172.221 185.213 170.672 178.818 165.854C179.879 170.557 177.728 175.619 174.112 178.808C170.496 181.998 165.632 183.494 160.822 183.831C156.436 184.138 151.884 183.509 148.065 181.33C144.246 179.151 141.263 175.272 140.834 170.896C137.428 183.962 119.895 186.873 111.52 177.453C107.643 173.093 105.951 166.88 107.082 161.155C106.82 162.482 100.776 164.645 99.5951 165.127C96.7086 166.305 93.6186 167.215 90.4831 167.315C85.4951 167.475 81.2646 165.228 79.68 160.164C78.596 156.698 78.4431 152.946 79.2411 149.404C77.4686 151.701 74.2495 152.387 71.3605 152.126C66.484 151.685 61.873 148.901 59.211 144.792C56.4115 140.47 56.2815 135.642 57.383 130.798C53.461 131.683 49.427 130.526 46.215 127.969C42.82 125.266 41.0465 120.666 41.7485 116.384C42.4255 112.253 45.1825 108.721 48.424 106.072C44.002 104.315 41.0835 99.6398 40.849 94.8873C40.6145 90.1353 42.8185 85.4498 46.207 82.1098C49.5955 78.7698 54.0715 76.6847 58.696 75.5642C58.983 69.2662 60.8065 63.3322 66.102 59.6787C71.739 55.7892 79.5946 55.4017 85.5871 58.7177C86.4486 49.7877 94.8721 42.8267 103.768 41.6662C112.664 40.5057 121.625 44.1752 128.781 49.5852C132.976 43.9617 139.248 39.5022 146.251 39.0762C153.254 38.6497 160.703 43.1392 162.201 49.9937C167.967 45.7862 175.805 44.2192 182.49 46.7207C189.176 49.2222 194.224 56.0802 193.821 63.2067C200.232 62.4797 206.928 65.7922 210.241 71.3302Z" fill="#F571E2"/>
<path d="M201.328 168.059C208.168 163.897 210.774 153.373 205.427 147.414C211.618 147.124 217.378 142.864 219.702 137.154C213.004 135.284 205.749 136.048 199.142 138.266C196.023 139.314 192.828 140.693 189.572 140.222C186.895 139.834 184.576 138.243 182.151 137.044C175.018 133.515 166.297 133.372 159.051 136.666C156.815 137.682 154.558 139.04 152.108 138.853C150.102 138.7 148.345 137.53 146.555 136.612C139.31 132.894 130.152 133.209 123.18 137.417C121.779 138.262 120.266 139.296 118.658 138.994C117.251 138.73 116.254 137.522 115.293 136.461C108.378 128.826 96.9746 125.596 87.0831 128.471C89.5091 117.347 81.4291 106.548 72.2096 99.8668C70.2816 98.4698 68.1475 96.9913 67.47 94.7088C66.95 92.9573 67.4066 91.0818 67.8751 89.3158C69.4951 83.2118 71.2686 76.9883 70.7781 70.6917C70.4636 66.6537 68.9946 62.5352 66.446 59.4597C66.332 59.5347 66.213 59.6017 66.101 59.6792C60.806 63.3327 58.982 69.2667 58.695 75.5648C54.071 76.6853 49.5945 78.7703 46.206 82.1103C42.8175 85.4508 40.6135 90.1358 40.848 94.8878C41.0825 99.6398 44.001 104.316 48.423 106.073C45.1815 108.722 42.425 112.253 41.7475 116.384C41.0455 120.667 42.819 125.267 46.214 127.969C49.4265 130.526 53.46 131.684 57.382 130.798C56.2805 135.643 56.41 140.47 59.21 144.792C61.872 148.902 66.4835 151.685 71.3596 152.126C74.2486 152.388 77.4681 151.702 79.2401 149.405C78.4421 152.948 78.5956 156.699 79.6791 160.165C81.2631 165.229 85.4941 167.476 90.4821 167.316C93.6176 167.216 96.7071 166.306 99.5941 165.128C100.775 164.646 106.819 162.483 107.081 161.156C105.95 166.88 107.642 173.094 111.519 177.454C119.894 186.874 137.427 183.963 140.833 170.897C141.262 175.273 144.245 179.152 148.064 181.331C151.883 183.51 156.435 184.139 160.82 183.832C165.63 183.495 170.494 181.999 174.11 178.809C177.726 175.62 179.878 170.558 178.816 165.855C185.212 170.671 194.487 172.22 201.328 168.059Z" fill="#EA63DD"/>
<path d="M102.866 97.3718C102.839 101.754 100.321 105.291 97.2415 105.272C94.162 105.253 91.6875 101.685 91.7145 97.3033C91.7415 92.9213 94.2595 89.3838 97.339 89.4028C100.419 89.4213 102.893 92.9893 102.866 97.3718Z" fill="#7A32BC"/>
<path d="M154.15 97.6868C154.123 102.069 151.605 105.606 148.525 105.587C145.446 105.568 142.971 102 142.998 97.6183C143.025 93.2358 145.543 89.6988 148.623 89.7178C151.702 89.7368 154.177 93.3048 154.15 97.6868Z" fill="#7A32BC"/>
<path d="M109.962 97.4153C110.54 104.367 114.536 109.967 121.843 110.491C129.062 111.009 134.461 104.899 135.87 98.3823C136.25 96.6268 133.561 95.8623 133.18 97.6228C130.511 109.96 113.902 111.225 112.756 97.4323C112.608 95.6513 109.813 95.6188 109.962 97.4153Z" fill="#7A32BC"/>
<path d="M233.135 104.317C231.719 97.2463 226.713 93.8298 219.916 92.3748C209.575 90.1608 198.234 90.3048 187.696 89.9443C183.505 77.8433 172.036 69.0937 158.519 69.0107C143.645 68.9192 131.12 79.3498 128.003 93.3113C124.745 90.9883 120.516 90.7218 117.015 92.7568C113.888 79.0013 101.611 68.6607 86.9106 68.5702C69.7751 68.4647 55.749 82.3193 55.644 99.4533C55.5385 116.589 69.3931 130.615 86.5286 130.72C103.663 130.825 117.689 116.971 117.794 99.8353C117.803 98.4593 117.712 97.1063 117.546 95.7763C120.616 93.4263 124.761 93.6138 127.469 96.4603C127.337 97.5883 127.261 98.7328 127.254 99.8938C127.148 117.029 141.003 131.055 158.137 131.16C175.271 131.266 189.297 117.411 189.402 100.276C189.418 97.6938 189.112 95.1843 188.53 92.7803C195.588 93.0403 202.631 93.4523 209.67 94.0378C218.044 94.7348 228.398 94.8643 230.436 105.042C230.79 106.809 233.488 106.077 233.135 104.317ZM86.5541 126.529C71.7301 126.437 59.744 114.304 59.835 99.4793C59.926 84.6563 72.0601 72.6707 86.8846 72.7617C101.708 72.8527 113.693 84.9873 113.602 99.8098C113.511 114.634 101.377 126.62 86.5541 126.529ZM158.162 126.969C143.339 126.878 131.354 114.744 131.445 99.9198C131.536 85.0968 143.67 73.1112 158.493 73.2022C173.316 73.2932 185.301 85.4273 185.21 100.25C185.119 115.074 172.985 127.06 158.162 126.969Z" fill="#FCCD56"/>
<path d="M56.4695 44.3732C56.565 44.3917 56.6645 44.4592 56.7675 44.5722C56.872 44.6852 56.9695 44.8012 57.0635 44.9207C57.158 45.0402 57.24 45.1542 57.309 45.2607C57.3805 45.3667 57.436 45.4492 57.473 45.5072C57.6945 45.7532 57.8945 46.0662 58.079 46.4477C58.2635 46.8282 58.3595 47.1972 58.374 47.5517L58.42 48.4442C58.421 48.7797 58.3945 49.0277 58.3475 49.1847C58.297 49.3427 58.2585 49.5862 58.225 49.9152C58.2245 50.0847 58.195 50.2502 58.137 50.4157C58.0785 50.5787 58.0335 50.7417 58.0015 50.9042L57.594 51.5517C57.4895 51.7332 57.3665 51.9142 57.22 52.0957C57.0735 52.2757 56.9245 52.4187 56.768 52.5207C56.3345 52.9202 55.9035 53.3202 55.4705 53.7212C55.0355 54.1212 54.5675 54.4887 54.0635 54.8237C53.9075 54.9272 53.726 55.0547 53.52 55.2057C53.312 55.3572 53.133 55.4847 52.9765 55.5877C52.835 55.7097 52.6495 55.7987 52.4205 55.8537C52.19 55.9072 52.017 55.9747 51.9015 56.0517L50.972 56.5447C50.861 56.5897 50.712 56.6602 50.5255 56.7572C50.338 56.8532 50.175 56.9477 50.0405 57.0367L49.576 56.3397C49.5315 56.2302 49.474 56.1217 49.403 56.0137C49.3325 55.9072 49.2565 55.7957 49.1795 55.6807C49.0195 55.4802 48.8795 55.2712 48.763 55.0547C48.647 54.8392 48.5085 54.6312 48.347 54.4297C48.263 54.3462 48.186 54.2507 48.1155 54.1432C48.045 54.0367 47.9775 53.9352 47.912 53.8382C47.8015 53.6332 47.6635 53.4437 47.4965 53.2762C47.3295 53.1087 47.2005 52.9142 47.1085 52.6942C46.955 52.2942 46.7515 51.9262 46.5 51.5892C46.248 51.2537 45.9765 50.8887 45.6875 50.4947C45.5395 50.3137 45.4055 50.1352 45.29 49.9597C45.175 49.7852 45.0585 49.6117 44.9415 49.4362L44.0045 47.9632C43.927 47.8467 43.824 47.6917 43.694 47.4977C43.5655 47.3042 43.428 47.1082 43.2835 46.9112C43.138 46.7147 43.0025 46.5312 42.8755 46.3632C42.7515 46.1957 42.663 46.0727 42.6115 45.9947C42.4555 45.8467 42.328 45.6532 42.2255 45.4137C42.154 45.2662 42.0725 45.1107 41.9795 44.9487C41.8855 44.7872 41.7865 44.6287 41.6835 44.4722C41.516 44.1367 41.2885 43.7647 41.001 43.3532C40.713 42.9432 40.4615 42.5722 40.243 42.2422C40.0875 42.0107 39.9555 41.7917 39.846 41.5847C39.7365 41.3782 39.6725 41.2377 39.6525 41.1667C39.4515 40.9077 39.311 40.6952 39.227 40.5267C39.1435 40.3597 39.0695 40.2261 39.0045 40.1301L42.087 38.0791C42.475 37.8216 42.89 37.5801 43.328 37.3581C43.7665 37.1371 44.203 36.9101 44.6355 36.6776C44.8365 36.6006 44.9875 36.5551 45.0915 36.5416C45.254 36.4901 45.3885 36.4426 45.499 36.3966C45.61 36.3516 45.716 36.3231 45.8195 36.3096C45.981 36.3431 46.1715 36.3566 46.391 36.3491C46.6095 36.3436 46.821 36.3346 47.024 36.3256C47.228 36.3161 47.429 36.3226 47.626 36.3456C47.822 36.3681 47.979 36.4246 48.0955 36.5146C48.198 36.5866 48.3185 36.6531 48.4585 36.7141C48.597 36.7756 48.718 36.8421 48.821 36.9126C49.0345 37.1071 49.282 37.3826 49.5625 37.7421C49.8425 38.1006 50.092 38.4881 50.3115 38.9016C50.5305 39.3151 50.7025 39.7311 50.828 40.1511C50.955 40.5706 50.984 40.9437 50.919 41.2647C50.8995 41.6987 50.8385 42.0812 50.7405 42.4127C50.6385 42.7452 50.533 43.0182 50.423 43.2322C50.3255 43.2962 50.255 43.3792 50.209 43.4782C50.1645 43.5782 50.102 43.6552 50.025 43.7062C50.2435 43.7007 50.407 43.6692 50.511 43.6142C50.6125 43.5597 50.773 43.5292 50.9955 43.5227C51.0325 43.4972 51.113 43.4722 51.2355 43.4452C51.36 43.4207 51.4385 43.3942 51.4785 43.3682C51.6335 43.2652 51.8265 43.2067 52.057 43.1952C52.2855 43.1817 52.5645 43.1507 52.893 43.0982C52.978 43.0997 53.0955 43.0972 53.2465 43.0947C53.399 43.0917 53.562 43.0942 53.7365 43.1037C53.911 43.1132 54.072 43.1267 54.2195 43.1387C54.37 43.1527 54.482 43.1747 54.5595 43.2062C54.8175 43.2592 54.9675 43.3137 55.004 43.3717C55.043 43.4292 55.19 43.5017 55.4405 43.5852C55.6605 43.6642 55.84 43.7677 55.9835 43.8947C56.127 44.0267 56.2875 44.1857 56.4695 44.3732ZM45.6095 44.1282C45.685 44.0772 45.7685 43.9597 45.8575 43.7747C45.9455 43.5912 45.9745 43.3962 45.9495 43.1887C45.9425 42.9702 45.911 42.7117 45.8535 42.4137C45.795 42.1172 45.6405 41.8842 45.389 41.7167C45.222 41.4642 44.986 41.2571 44.684 41.0956C44.379 40.9336 44.0605 40.8947 43.724 40.9782C43.646 41.0297 43.5945 41.0577 43.569 41.0612C43.543 41.0647 43.4905 41.0917 43.4145 41.1427C43.361 41.2342 43.3205 41.2757 43.288 41.2697C43.255 41.2627 43.191 41.2917 43.095 41.3567L42.9195 41.4722C43.2545 41.9767 43.577 42.5032 43.8865 43.0522C44.195 43.6017 44.556 44.1027 44.969 44.5552L45.6095 44.1282ZM51.964 52.8637C52.041 52.8122 52.156 52.7217 52.308 52.5932C52.4595 52.4642 52.6125 52.3352 52.765 52.2057C52.9155 52.0772 53.12 51.9132 53.3805 51.7132C53.4905 51.5842 53.597 51.4627 53.7055 51.3482C53.8095 51.2367 53.909 51.1227 54.001 51.0067C54.2195 50.6642 54.328 50.3542 54.326 50.0767C54.3225 49.7997 54.2925 49.4697 54.234 49.0887C54.1905 48.8107 54.0975 48.5362 53.9605 48.2647C53.822 47.9937 53.6705 47.7582 53.51 47.5567C53.4205 47.4207 53.3355 47.2957 53.258 47.1792C53.179 47.0617 53.0875 46.9427 52.978 46.8207C52.861 46.6457 52.6995 46.4537 52.4895 46.2432C52.2795 46.0327 52.0585 45.9217 51.8265 45.9082C51.5475 45.7857 51.183 45.7842 50.731 45.9012C50.2785 46.0212 49.9145 46.1447 49.6355 46.2732C49.4615 46.3897 49.3 46.4917 49.147 46.5782C48.9945 46.6657 48.845 46.7027 48.695 46.6902L46.8355 47.9272C46.8795 47.9537 46.9435 48.0377 47.0225 48.1792C47.1045 48.3212 47.1555 48.4117 47.1815 48.4512C47.48 48.8972 47.76 49.3607 48.024 49.8422C48.289 50.3232 48.553 50.7427 48.817 51.0967L49.7645 52.3972C49.7915 52.4352 49.8425 52.5122 49.92 52.6287C49.9975 52.7452 50.0815 52.8717 50.171 53.0077C50.2605 53.1437 50.343 53.2637 50.412 53.3707C50.484 53.4777 50.5325 53.5502 50.557 53.5887C50.817 53.4732 51.0585 53.3537 51.2855 53.2307C51.5125 53.1087 51.737 52.9857 51.964 52.8637Z" fill="#00B9D9"/>
<path d="M59.0621 40.5712C58.9471 40.3682 58.8636 40.1627 58.8116 39.9572C58.7596 39.7512 58.6901 39.5512 58.6066 39.3607C58.4566 39.0197 58.3086 38.6977 58.1611 38.3917C58.0141 38.0882 57.8661 37.7647 57.7186 37.4232L57.0565 35.9216C57.0085 35.8151 56.9551 35.7056 56.8931 35.5921C56.8311 35.4801 56.7651 35.3756 56.6981 35.2776L55.3895 32.3041C55.2985 32.0386 55.1645 31.7221 54.992 31.3536C54.8155 30.9856 54.705 30.7491 54.6585 30.6421C54.629 30.5781 54.5915 30.5181 54.5415 30.4631C54.493 30.4091 54.47 30.3556 54.472 30.3041C54.579 30.2576 54.686 30.1976 54.793 30.1246C54.9015 30.0516 55.0525 29.9726 55.2445 29.8891C55.404 29.7931 55.566 29.6966 55.7275 29.6001C55.888 29.5041 56.074 29.4081 56.2875 29.3136L57.7271 28.6831C57.8971 28.6076 58.0501 28.5471 58.1821 28.5006C58.3146 28.4556 58.4976 28.4081 58.7296 28.3561C58.7596 28.3676 58.7846 28.3691 58.8066 28.3601C58.8376 28.3711 58.9056 28.3546 59.0136 28.3076C59.1211 28.2096 59.3036 28.1156 59.5571 28.0311C59.8116 27.9436 60.0721 27.8546 60.3376 27.7636C60.5181 27.7096 60.6956 27.6826 60.8731 27.6806C61.0501 27.6786 61.1931 27.6556 61.3001 27.6076C61.3426 27.5891 61.4661 27.5801 61.6696 27.5786C61.8726 27.5796 62.0906 27.5856 62.3256 27.5961C62.5591 27.6071 62.7726 27.6151 62.9641 27.6196C63.1586 27.6246 63.2921 27.6231 63.3636 27.6161C63.6871 27.6021 64.0076 27.6191 64.3236 27.6711C64.6386 27.7231 64.9011 27.8166 65.1151 27.9526C65.3641 27.9961 65.5746 28.1011 65.7481 28.2666C65.9231 28.4321 66.1106 28.5701 66.3141 28.6841C66.4161 28.7426 66.5046 28.8296 66.5826 28.9491C66.6601 29.0671 66.7646 29.1606 66.8966 29.2301C67.0701 29.3326 67.2441 29.5156 67.4256 29.7796C67.6046 30.0441 67.7701 30.3341 67.9216 30.6486C68.0731 30.9631 68.2106 31.2921 68.3356 31.6316C68.4591 31.9711 68.5651 32.2736 68.6576 32.5386C68.7081 32.7711 68.7516 32.9866 68.7896 33.1856C68.8266 33.3866 68.8771 33.6121 68.9356 33.8656C68.9616 33.9816 68.9641 34.1196 68.9471 34.2806C68.9276 34.4421 68.9206 34.5856 68.9246 34.7111C68.9326 35.1896 68.8306 35.7061 68.6141 36.2591L68.4656 36.7041C68.3996 36.7851 68.3486 36.8711 68.3136 36.9631C68.2781 37.0541 68.2296 37.1526 68.1736 37.2527C68.1121 37.4077 68.0291 37.5457 67.9186 37.6707C67.8081 37.7957 67.7226 37.9352 67.6636 38.0872C67.3636 38.2192 67.1371 38.3832 66.9821 38.5782C66.8256 38.7737 66.6021 38.8857 66.3086 38.9122C66.0951 39.0067 65.9146 39.1172 65.7691 39.2447C65.6211 39.3727 65.4616 39.4752 65.2916 39.5497L65.1001 39.6347C65.1466 39.7417 65.3436 39.8702 65.6911 40.0237C66.0396 40.1762 66.3121 40.3362 66.5121 40.5022C66.7566 40.5977 66.9796 40.6847 67.1811 40.7622C67.3796 40.8392 67.6061 40.9367 67.8611 41.0527C68.2511 41.1877 68.5456 41.3057 68.7431 41.4092C68.9401 41.5127 69.2351 41.6317 69.6261 41.7652C69.7991 41.8167 70.0451 41.9567 70.3621 42.1862C70.6806 42.4152 70.9256 42.5557 71.1006 42.6052C71.3116 42.7402 71.4491 42.8337 71.5086 42.8842C71.5691 42.9332 71.6601 42.9832 71.7836 43.0292C72.0576 43.1902 72.2866 43.3362 72.4726 43.4707C72.6596 43.6047 72.8546 43.7297 73.0566 43.8442C73.0336 44.0827 72.9711 44.3447 72.8691 44.6322C72.7656 44.9187 72.6041 45.2127 72.3801 45.5157C72.3081 45.4702 72.2181 45.4387 72.1101 45.4237C72.0016 45.4072 71.9071 45.3662 71.8261 45.2997C71.7651 45.2757 71.5646 45.2112 71.2276 45.1052C70.8881 45.0012 70.5906 44.8892 70.3356 44.7717C70.1636 44.6702 69.9001 44.5502 69.5491 44.4132C69.1956 44.2762 68.8131 44.1452 68.4026 44.0202C67.9911 43.8957 67.6111 43.7517 67.2591 43.5887C66.9071 43.4252 66.6346 43.2982 66.4401 43.2032C66.3491 43.1677 66.1981 43.1137 65.9871 43.0407C65.7776 42.9687 65.5566 42.9002 65.3261 42.8357C65.0946 42.7732 64.8736 42.7042 64.6636 42.6297C64.4526 42.5577 64.3016 42.5037 64.2096 42.4687C64.1871 42.5307 64.1761 42.5777 64.1796 42.6152C64.1826 42.6517 64.1831 42.6962 64.1811 42.7477C64.1791 42.8007 64.1871 42.8477 64.2041 42.8907C64.3926 43.3167 64.5526 43.7232 64.6856 44.1112C64.8166 44.4982 64.9616 44.8732 65.1211 45.2352C65.2061 45.4267 65.2876 45.6272 65.3661 45.8332C65.4436 46.0407 65.5401 46.2727 65.6521 46.5287L66.1441 47.6467C66.1001 47.6657 66.0286 47.7027 65.9266 47.7617C65.8256 47.8192 65.7161 47.8857 65.5961 47.9622C65.3806 48.1097 65.1591 48.2252 64.9311 48.3132C64.7001 48.4002 64.4811 48.4922 64.2686 48.5862C63.9901 48.7072 63.7611 48.8087 63.5811 48.8877C63.3976 48.9687 63.2041 49.0027 62.9956 48.9922C62.8891 49.0402 62.8256 49.0677 62.8041 49.0772C62.7836 49.0862 62.6956 49.0607 62.5426 49.0017L61.4636 46.4607L61.3456 46.0172L60.8321 45.0212L59.4611 41.7317C59.3816 41.4362 59.3086 41.2267 59.2421 41.1037C59.1711 40.9807 59.1126 40.8037 59.0621 40.5712ZM62.9796 34.3836C62.9106 34.1086 62.8186 33.8391 62.7021 33.5721C62.5846 33.3061 62.4676 33.0721 62.3511 32.8666C62.2951 32.7391 62.2161 32.6741 62.1121 32.6671C62.0001 32.5896 61.9091 32.5411 61.8371 32.5221C61.7651 32.5031 61.6881 32.4861 61.6051 32.4716C61.4001 32.4091 61.1941 32.3786 60.9916 32.3786C60.7876 32.3791 60.5921 32.3951 60.4021 32.4271C60.3391 32.4561 60.3041 32.5221 60.2991 32.6256C60.2971 32.6771 60.2986 32.7136 60.3096 32.7356L61.7436 35.9971L62.2876 35.7586C62.3466 35.6051 62.4276 35.4991 62.5301 35.4416C62.6321 35.3841 62.7016 35.2841 62.7411 35.1386C62.8206 34.9761 62.8866 34.8516 62.9391 34.7671C62.9896 34.6791 63.0026 34.5516 62.9796 34.3836Z" fill="#00B9D9"/>
<path d="M75.6256 38.4781C75.6331 37.9846 75.6486 37.4951 75.6721 37.0091C75.6956 36.5231 75.7096 36.0336 75.7186 35.5401C75.7186 35.1716 75.7516 34.7921 75.8186 34.4031C75.8851 34.0116 75.9426 33.6626 75.9851 33.3531C75.9716 32.9411 75.9881 32.5986 76.0311 32.3261C76.0771 32.0541 76.0991 31.8806 76.0986 31.8071C76.0851 31.7621 76.0976 31.6361 76.1396 31.4256C76.1801 31.2156 76.1986 30.8896 76.2006 30.4486C76.2011 30.2286 76.1916 29.9976 76.1736 29.7576C76.1561 29.5191 76.1576 29.2846 76.1801 29.0566L76.3391 26.8691C76.3471 26.5981 76.3481 26.3951 76.3401 26.2626C76.3331 26.1296 76.3261 26.0151 76.3186 25.9196C76.3111 25.8251 76.3001 25.7181 76.2856 25.5996C76.2711 25.4826 76.2781 25.2826 76.3091 25.0031C76.3376 24.7241 76.3546 24.4601 76.3596 24.2136C76.3626 23.9671 76.3816 23.7041 76.4101 23.4241C76.4111 23.2766 76.4096 23.1296 76.4121 22.9831C76.4116 22.8346 76.4111 22.6871 76.4126 22.5411C76.4211 22.3421 76.4236 22.1681 76.4246 22.0206C76.4246 21.8746 76.4176 21.7051 76.4031 21.5131C76.4311 21.4536 76.4441 21.3831 76.4411 21.2981C76.4371 21.2146 76.4506 21.1056 76.4806 20.9721C76.5846 20.8406 76.6776 20.7546 76.7626 20.7121C76.8461 20.6726 76.9341 20.6376 77.0231 20.6086L78.5466 20.1026C78.6211 20.1751 78.6696 20.2531 78.6961 20.3296C78.7211 20.4066 78.7711 20.4826 78.8441 20.5556L79.1421 21.0096L79.3296 21.2411L80.0356 22.1476L81.1936 23.6406L81.5686 23.9946C81.6271 24.0256 81.7026 24.1036 81.7951 24.2321C81.8856 24.3621 82.0121 24.5226 82.1746 24.7141C82.3801 24.9656 82.6041 25.2521 82.8471 25.5771C83.0886 25.9011 83.3246 26.2221 83.5541 26.5386C83.8911 27.0401 84.1541 27.4061 84.3401 27.6381C84.5276 27.8711 84.7246 28.1126 84.9311 28.3626C85.0266 28.4286 85.1031 28.5141 85.1621 28.6176C85.2211 28.7211 85.2901 28.8211 85.3711 28.9161L86.2531 30.1326L87.2131 31.1386C87.3456 31.3161 87.4801 31.4851 87.6216 31.6481C87.7601 31.8101 87.9136 31.9611 88.0836 32.1011C88.4061 32.4846 88.6856 32.8406 88.9176 33.1691C89.1481 33.4966 89.4236 33.8531 89.7486 34.2361C89.9016 34.4056 90.0591 34.5616 90.2176 34.7051C90.3751 34.8491 90.5201 35.0106 90.6521 35.1871C90.7336 35.2836 90.8146 35.3786 90.8961 35.4751C90.9746 35.5706 91.0576 35.6666 91.1371 35.7621C91.3151 35.9241 91.4756 36.0976 91.6236 36.2816C91.7701 36.4656 91.9391 36.6626 92.1306 36.8681C92.2186 36.9856 92.3181 37.0996 92.4286 37.2116C92.5376 37.3226 92.6236 37.4271 92.6816 37.5321C92.5711 37.5676 92.4566 37.5931 92.3396 37.6086C92.2211 37.6231 92.1176 37.6441 92.0311 37.6736L91.4656 37.8611C91.2686 37.9261 91.0916 37.9911 90.9406 38.0541C90.7906 38.1156 90.6591 38.1651 90.5501 38.2016C90.3506 37.9736 90.1046 37.7666 89.8106 37.5826C89.5151 37.3981 89.1956 37.1546 88.8501 36.8516C88.7691 36.7566 88.6921 36.6711 88.6176 36.5971C88.5446 36.5241 88.4726 36.4511 88.3981 36.3756C88.3101 36.2581 88.1206 36.1126 87.8301 35.9386C87.5396 35.7661 87.3596 35.6161 87.2951 35.4901C87.0531 35.3506 86.8711 35.2326 86.7546 35.1361C86.6351 35.0406 86.5046 34.9561 86.3576 34.8811C86.2686 34.9111 86.1561 34.9431 86.0201 34.9751C85.8831 35.0091 85.7561 35.0316 85.6391 35.0461C85.4986 35.0686 85.3516 35.1046 85.1971 35.1561L84.4011 35.4201C84.2911 35.4566 84.1756 35.5011 84.0591 35.5506C83.9401 35.6036 83.7631 35.6751 83.5226 35.7666C83.2821 35.8581 82.9551 35.9781 82.5391 36.1296C82.1231 36.2806 81.5596 36.4721 80.8531 36.7071L80.6216 36.7841C80.4446 36.8426 80.3131 36.9056 80.2231 36.9716C80.1356 37.0381 79.9911 37.0671 79.7936 37.0581C79.7136 37.0376 79.5491 37.0796 79.3006 37.1856C79.0536 37.2916 78.8911 37.3711 78.8101 37.4221L78.3881 37.5981L78.2991 37.8846C78.2996 38.0321 78.2746 38.2131 78.2231 38.4266C78.1701 38.6406 78.1186 38.8531 78.0671 39.0666C78.0156 39.2801 77.9686 39.4916 77.9286 39.7021C77.8881 39.9121 77.8631 40.0791 77.8571 40.2051L77.8216 40.8786L77.4986 42.6777C77.4841 42.7807 77.4321 42.8467 77.3441 42.8767C77.2561 42.9067 77.1976 42.9492 77.1666 43.0092L75.4761 43.5702C75.3591 43.5097 75.2966 43.4702 75.2886 43.4477C75.2816 43.4252 75.3031 43.3447 75.3556 43.2047C75.3266 43.1152 75.3176 42.9777 75.3286 42.7917C75.3401 42.6027 75.3311 42.4652 75.3026 42.3771C75.3531 42.1637 75.3876 41.9507 75.4021 41.7362C75.4171 41.5226 75.4391 41.3136 75.4696 41.1066L75.6256 38.4781ZM79.8601 27.9461C79.7626 28.0276 79.7041 28.1086 79.6826 28.1891C79.6601 28.2711 79.6421 28.3641 79.6271 28.4651C79.6426 28.8041 79.6261 29.1466 79.5811 29.4921C79.5361 29.8386 79.5001 30.1891 79.4711 30.5416C79.4316 30.7991 79.3896 31.0411 79.3426 31.2646C79.2931 31.4896 79.2621 31.7271 79.2461 31.9776C79.1951 32.4856 79.1401 32.9871 79.0846 33.4856C79.0286 33.9816 78.9486 34.4811 78.8446 34.9821L79.0436 34.9156C79.2191 34.8571 79.3836 34.8156 79.5356 34.7896C79.6861 34.7636 79.8321 34.7031 79.9736 34.6081C80.0896 34.5201 80.2126 34.4666 80.3421 34.4486C80.4701 34.4311 80.5911 34.4026 80.7016 34.3661C81.0776 34.2411 81.4631 34.1071 81.8566 33.9641C82.2506 33.8211 82.6981 33.6916 83.1996 33.5741C83.4501 33.5146 83.6766 33.4401 83.8791 33.3491C84.0811 33.2566 84.2931 33.1746 84.5136 33.1011L84.8141 33.0006C84.7611 32.9211 84.7091 32.8571 84.6591 32.8141C84.6061 32.7701 84.5481 32.7206 84.4816 32.6686C84.3356 32.5226 84.1896 32.3991 84.0456 32.2986C83.9031 32.1991 83.7636 32.0611 83.6326 31.8836L81.7016 29.9491C81.6216 29.8526 81.5286 29.7241 81.4266 29.5606L79.8601 27.9461Z" fill="#00B9D9"/>
<path d="M97.4857 33.0221C97.4982 33.0686 97.5197 33.1526 97.5507 33.2756C97.5822 33.4001 97.6162 33.5366 97.6527 33.6826C97.6912 33.8291 97.7272 33.9711 97.7592 34.1056C97.7942 34.2411 97.8212 34.3436 97.8382 34.4101C97.9922 35.0201 98.1027 35.4371 98.1712 35.6596C98.2397 35.8822 98.3142 36.1507 98.3952 36.4671C98.4107 36.5352 98.3862 36.6071 98.3217 36.6836C98.2572 36.7602 98.1817 36.8207 98.0972 36.8672L95.9306 37.4146L95.8362 37.0417L95.0581 34.6791C94.9506 34.2511 94.8391 33.8351 94.7256 33.4306C94.6126 33.0286 94.4931 32.6261 94.3681 32.2251L94.1356 31.3116C94.0561 30.9951 93.9661 30.6871 93.8671 30.3876C93.7671 30.0881 93.6996 29.7761 93.6656 29.4486L93.3736 28.2966C93.2716 27.8911 93.1656 27.4916 93.0531 27.0996C92.9421 26.7076 92.8266 26.3216 92.7066 25.9446C92.6786 25.8316 92.6601 25.7351 92.6511 25.6511C92.6436 25.5696 92.6236 25.4721 92.5971 25.3586C92.4761 24.8856 92.3616 24.4576 92.2526 24.0766C92.1451 23.6956 92.0446 23.3191 91.9516 22.9456C91.8551 22.5746 91.7571 22.1841 91.6541 21.7786C91.5516 21.3706 91.4276 20.9231 91.2791 20.4316L91.0401 19.4826C90.9536 19.2411 90.8721 18.9911 90.7956 18.7346C90.7181 18.4781 90.6491 18.2256 90.5861 17.9771L90.5601 17.8756C90.5376 17.7851 90.5291 17.7041 90.5346 17.6291C90.5506 17.6026 90.6671 17.5371 90.8801 17.4331C90.9861 17.3826 91.1346 17.3466 91.3206 17.3221C91.4901 17.3281 91.6866 17.2961 91.9106 17.2276C92.1331 17.1606 92.3806 17.0911 92.6506 17.0231C92.8766 16.9656 93.0681 16.9426 93.2261 16.9496C93.3841 16.9576 93.4696 16.9851 93.4806 17.0301L94.8161 22.3126C94.8381 22.4991 94.8781 22.6746 94.9321 22.8416C94.9861 23.0076 95.0246 23.1846 95.0481 23.3706C95.0871 23.6251 95.1437 23.8746 95.2176 24.1196C95.2932 24.3646 95.3611 24.6121 95.4241 24.8606L95.5702 25.4356C95.5872 25.5036 95.6061 25.5776 95.6241 25.6571C95.6456 25.7361 95.6556 25.8236 95.6556 25.9196C95.6441 25.9706 95.6556 26.0576 95.6856 26.1821C95.7171 26.3066 95.7571 26.4341 95.8021 26.5666C95.8471 26.6991 95.8916 26.8311 95.9381 26.9646C95.9841 27.0966 96.0131 27.1861 96.0241 27.2311C96.2006 27.8356 96.2866 28.1981 96.2806 28.3191C96.2761 28.4411 96.2821 28.5346 96.2976 28.6026C96.3561 28.9246 96.4407 29.2396 96.5557 29.5471C96.6692 29.8546 96.7666 30.1661 96.8461 30.4826C96.9761 30.9051 97.0892 31.3286 97.1832 31.7471C97.2767 32.1686 97.3772 32.5941 97.4857 33.0221Z" fill="#00B9D9"/>
<path d="M106.151 21.3106C106.747 22.0106 107.378 22.7511 108.047 23.5321C108.716 24.3131 109.432 25.1336 110.197 25.9921C110.369 26.2936 110.564 26.5606 110.782 26.7941C111 27.0276 111.216 27.2211 111.432 27.3721C111.555 27.5396 111.71 27.7431 111.894 27.9816C112.076 28.2231 112.253 28.4211 112.423 28.5811L112.469 28.4316L112.162 26.6756C112.154 26.6311 112.153 26.6011 112.164 26.5871C112.173 26.5746 112.175 26.5441 112.167 26.4986C111.982 25.9866 111.881 25.5136 111.865 25.0801C111.848 24.6466 111.774 24.1921 111.643 23.7171C111.637 23.5536 111.623 23.4026 111.601 23.2646C111.576 23.1261 111.551 22.9886 111.526 22.8511L111.145 21.0741L110.399 16.8071C110.382 16.7171 110.358 16.5436 110.324 16.2896C110.293 16.0351 110.25 15.7526 110.194 15.4421C110.14 15.1326 110.088 14.8296 110.035 14.5301C109.983 14.2321 109.942 14.0031 109.914 13.8426C109.899 13.7506 109.901 13.6621 109.921 13.5756C109.942 13.4891 110.042 13.4291 110.226 13.3981L111.362 13.2001C111.569 13.1636 111.816 13.1546 112.103 13.1766C112.39 13.1961 112.58 13.1996 112.673 13.1831L112.843 13.1521C112.979 13.9326 113.124 14.7301 113.279 15.5411C113.433 16.3536 113.58 17.1191 113.718 17.8401C113.854 18.5601 113.989 19.2226 114.118 19.8271C114.247 20.4316 114.356 20.9136 114.444 21.2766C114.452 21.4646 114.478 21.6436 114.519 21.8121C114.559 21.9821 114.585 22.1611 114.596 22.3486C114.616 22.6066 114.654 22.8586 114.711 23.1096C114.765 23.3596 114.815 23.6106 114.859 23.8631L115.15 25.5141C115.28 26.1301 115.362 26.6251 115.39 26.9971C115.42 27.3701 115.441 27.5911 115.453 27.6601C115.487 27.9866 115.532 28.3081 115.588 28.6291C115.645 28.9511 115.7 29.2721 115.756 29.5931C115.855 30.0256 115.931 30.4546 115.984 30.8836C116.033 31.3111 116.109 31.7411 116.209 32.1736C116.241 32.3556 116.271 32.5286 116.299 32.6891C116.327 32.8496 116.368 33.0191 116.423 33.1996C116.444 33.3141 116.327 33.3926 116.076 33.4376L114.94 33.6356C114.672 33.7286 114.456 33.7801 114.291 33.7851C114.128 33.7896 114.011 33.7986 113.942 33.8106C113.775 33.5321 113.629 33.3041 113.503 33.1256C113.376 32.9461 113.246 32.7746 113.11 32.6081C112.974 32.4431 112.834 32.2726 112.685 32.0981C112.536 31.9236 112.358 31.7116 112.149 31.4656C112.06 31.3626 111.94 31.2236 111.791 31.0491C111.642 30.8736 111.513 30.7376 111.401 30.6376C111.235 30.5021 111.087 30.3326 110.957 30.1311C110.827 29.9296 110.643 29.7551 110.405 29.6071C110.025 29.2001 109.655 28.7756 109.294 28.3296C108.932 27.8841 108.547 27.4386 108.138 26.9901C107.732 26.5646 107.277 26.1286 106.775 25.6856C106.271 25.2416 105.756 24.7341 105.231 24.1641C104.971 23.7611 104.624 23.3611 104.187 22.9651C103.751 22.5676 103.371 22.1846 103.047 21.8171C103.04 21.7711 103.05 21.8641 103.079 22.0951C103.107 22.3266 103.147 22.5846 103.197 22.8711C103.247 23.1586 103.302 23.5446 103.364 24.0301L103.412 24.3051C103.467 24.4856 103.498 24.6626 103.507 24.8396C103.512 25.0146 103.532 25.1951 103.565 25.3781L104.242 29.6566L104.624 31.4336C104.647 31.5711 104.677 31.7076 104.713 31.8431C104.748 31.9786 104.769 32.1296 104.775 32.2931C104.878 32.6066 104.948 32.9431 104.987 33.3026C105.026 33.6621 105.086 34.0111 105.169 34.3521C105.249 34.6686 105.285 34.8996 105.273 35.0431C105.263 35.1871 105.238 35.2851 105.201 35.3396L102.483 35.8156C102.299 35.8476 102.111 35.8861 101.918 35.9321C101.726 35.9776 101.536 36.0046 101.349 36.0151C101.326 36.0181 101.291 35.9236 101.245 35.7311C101.199 35.5386 101.153 35.3091 101.107 35.0466C101.061 34.7831 101.014 34.5131 100.966 34.2366C100.918 33.9616 100.882 33.7551 100.858 33.6176C100.801 33.2971 100.749 32.9686 100.704 32.6351C100.656 32.2996 100.595 31.9746 100.515 31.6566C100.458 31.3361 100.413 31.0181 100.383 30.7041C100.351 30.3906 100.297 30.0761 100.217 29.7581C100.177 29.5286 100.139 29.3401 100.102 29.1931C100.065 29.0461 100.035 28.9151 100.014 28.8006L99.8556 28.2966C99.8471 28.2511 99.8481 28.2216 99.8571 28.2081C99.8661 28.1946 99.8686 28.1651 99.8596 28.1181C99.6746 27.6071 99.5551 27.0956 99.5031 26.5846C99.4486 26.0741 99.3576 25.5821 99.2261 25.1086C99.2226 24.9436 99.2071 24.7926 99.1821 24.6551C99.1586 24.5176 99.1336 24.3786 99.1106 24.2426L98.7276 22.4646L98.0851 18.1811C98.0541 17.9976 98.0166 17.8206 97.9741 17.6511C97.9341 17.4811 97.8851 17.3061 97.8296 17.1261L97.9826 16.7816C98.0961 16.7616 98.2896 16.7206 98.5636 16.6611C98.8366 16.6026 99.1586 16.5521 99.5296 16.5106C99.8286 16.4576 100.05 16.4016 100.191 16.3416C100.336 16.2801 100.498 16.2336 100.682 16.2026C100.796 16.1821 100.897 16.1816 100.983 16.2031C101.07 16.2221 101.183 16.2206 101.319 16.1961L102.042 16.0696C102.143 16.2426 102.274 16.4201 102.436 16.6036C102.597 16.7876 102.757 16.9861 102.913 17.1946C103.254 17.6546 103.517 18.0521 103.706 18.3861C103.894 18.7201 104.06 18.9556 104.202 19.0956C104.315 19.1951 104.457 19.3356 104.632 19.5166C104.806 19.6991 104.981 19.8936 105.159 20.0991C105.336 20.3036 105.509 20.5156 105.678 20.7346C105.847 20.9551 106.005 21.1476 106.151 21.3106Z" fill="#00B9D9"/>
<path d="M125.348 11.2901C125.574 11.1841 125.922 11.1416 126.389 11.1626C126.857 11.1831 127.232 11.1856 127.51 11.1696C127.673 11.1611 127.889 11.1546 128.157 11.1511C128.423 11.1491 128.71 11.1556 129.015 11.1726C129.317 11.1901 129.605 11.1986 129.873 11.1956C130.14 11.1926 130.345 11.1866 130.484 11.1796C130.692 11.1666 130.984 11.1571 131.357 11.1481C131.729 11.1381 132.012 11.1751 132.203 11.2576C132.297 11.2991 132.504 11.3281 132.82 11.3446C133.136 11.3636 133.328 11.3811 133.402 11.4001C133.518 11.3941 133.587 11.3966 133.611 11.4066C133.635 11.4176 133.696 11.4666 133.793 11.5536C133.807 11.7866 133.788 12.0031 133.742 12.2036C133.695 12.4046 133.678 12.5986 133.688 12.7846C133.525 12.7916 133.35 12.8146 133.167 12.8476C132.981 12.8816 132.819 12.9136 132.68 12.9451C132.452 13.0041 132.272 13.0316 132.143 13.0271C132.015 13.0226 131.799 13.0281 131.498 13.0456C131.218 13.0606 130.924 13.0901 130.612 13.1296C130.298 13.1721 130.014 13.2101 129.761 13.2476C129.505 13.2856 129.292 13.3206 129.119 13.3536C128.945 13.3866 128.847 13.4036 128.824 13.4056C128.571 13.4666 128.239 13.5546 127.824 13.6716C127.411 13.7881 126.987 13.9226 126.552 14.0746C126.118 14.2266 125.72 14.3956 125.356 14.5791C124.993 14.7626 124.748 14.9391 124.616 15.1101C124.425 15.4241 124.234 15.6731 124.047 15.8586C123.858 16.0441 123.727 16.3021 123.653 16.6331C123.61 16.7281 123.596 16.8871 123.608 17.1071C123.62 17.3286 123.639 17.5606 123.665 17.8041C123.689 18.0481 123.733 18.2846 123.792 18.5141C123.851 18.7436 123.919 18.9151 123.995 19.0266C124.192 19.2261 124.354 19.4271 124.482 19.6301C124.61 19.8321 124.713 19.9561 124.783 19.9981C124.95 20.0821 125.162 20.1866 125.413 20.3131C125.665 20.4386 125.923 20.5531 126.185 20.6546C126.231 20.6761 126.379 20.6956 126.626 20.7171C126.872 20.7386 127.16 20.7866 127.49 20.8611C127.678 20.8976 127.798 20.9261 127.845 20.9461C127.894 20.9671 127.999 20.9956 128.166 21.0326C128.284 21.0731 128.368 21.1046 128.415 21.1246C128.462 21.1446 128.547 21.1761 128.665 21.2151C128.806 21.2541 128.967 21.2851 129.142 21.3116C129.319 21.3361 129.42 21.3486 129.444 21.3466C129.629 21.3366 129.822 21.3551 130.022 21.4011C130.225 21.4496 130.418 21.4671 130.602 21.4571C130.932 21.5326 131.24 21.5851 131.522 21.6156C131.804 21.6461 132.1 21.7586 132.415 21.9501C132.579 21.9886 132.758 22.0366 132.948 22.0966C133.137 22.1556 133.293 22.2166 133.413 22.2796C133.485 22.3226 133.623 22.3911 133.826 22.4841C134.03 22.5781 134.241 22.6881 134.458 22.8156C134.675 22.9441 134.88 23.0841 135.076 23.2366C135.271 23.3891 135.395 23.5221 135.449 23.6356C135.7 23.9956 135.885 24.3636 136 24.7416C136.114 25.1211 136.183 25.5081 136.205 25.9021C136.212 26.0191 136.202 26.1711 136.177 26.3586C136.153 26.5476 136.133 26.6996 136.116 26.8176L135.995 27.8036C135.957 27.9226 135.862 28.1381 135.717 28.4481C135.571 28.7601 135.476 28.9396 135.432 28.9891C135.412 29.0361 135.357 29.1166 135.27 29.2251C135.184 29.3346 135.092 29.4441 134.991 29.5571C134.893 29.6676 134.799 29.7656 134.711 29.8521C134.622 29.9386 134.566 29.9941 134.546 30.0191C134.391 30.1671 134.151 30.3676 133.827 30.6186C133.502 30.8711 133.155 31.1286 132.785 31.3951C132.417 31.6596 132.055 31.8901 131.705 32.0841C131.354 32.2796 131.063 32.3836 130.83 32.3946C130.786 32.4451 130.73 32.4646 130.658 32.4576C130.588 32.4496 130.52 32.4706 130.452 32.5216C130.197 32.5356 129.954 32.5671 129.724 32.6151C129.494 32.6626 129.179 32.6856 128.784 32.6856C128.433 32.6811 128.102 32.7056 127.79 32.7581C127.477 32.8106 127.135 32.8351 126.762 32.8321C126.574 32.8426 126.297 32.8596 125.925 32.8801C125.553 32.9006 125.157 32.9166 124.737 32.9291C124.318 32.9401 123.918 32.9436 123.532 32.9431C123.146 32.9411 122.836 32.9131 122.6 32.8556C122.577 32.8576 122.5 32.8496 122.372 32.8331C122.242 32.8171 122.103 32.8076 121.951 32.8051C121.798 32.8011 121.653 32.7921 121.512 32.7766C121.37 32.7601 121.264 32.7551 121.195 32.7591C121.008 32.7471 120.734 32.7266 120.37 32.7011C120.007 32.6741 119.755 32.6416 119.612 32.6026C119.516 32.5616 119.414 32.5021 119.305 32.4281C119.196 32.3516 119.137 32.2561 119.131 32.1401C119.081 32.0496 119.005 31.8731 118.909 31.6101C118.812 31.3481 118.722 31.0736 118.636 30.7871C118.55 30.4996 118.483 30.2401 118.435 30.0096C118.387 29.7791 118.386 29.6621 118.434 29.6596C118.833 29.7311 119.24 29.7961 119.651 29.8536C120.063 29.9136 120.525 29.9746 121.044 30.0396C121.437 30.0166 121.837 30.0356 122.237 30.0951C122.637 30.1551 123.092 30.1696 123.604 30.1411C123.789 30.1311 123.986 30.1016 124.193 30.0556C124.401 30.0081 124.665 29.9541 124.987 29.8891C125.057 29.8616 125.126 29.8456 125.196 29.8431C125.266 29.8376 125.322 29.8231 125.369 29.7971C125.718 29.7781 126.117 29.6446 126.569 29.3986C127.022 29.1521 127.374 28.9616 127.625 28.8316C127.647 28.8301 127.709 28.7921 127.809 28.7161C127.911 28.6401 128.015 28.5481 128.126 28.4366C128.236 28.3261 128.341 28.2206 128.441 28.1216C128.54 28.0226 128.6 27.9491 128.621 27.9021L129.227 26.8531C129.267 26.7351 129.322 26.5971 129.397 26.4421C129.47 26.2861 129.524 26.1496 129.566 26.0301C129.686 25.6731 129.66 25.2321 129.491 24.7041C129.346 24.5976 129.228 24.4751 129.139 24.3406C129.05 24.2051 128.931 24.0606 128.783 23.9056C128.655 23.7261 128.507 23.5881 128.341 23.4921C128.17 23.3971 127.99 23.3086 127.801 23.2246C127.468 23.1271 127.159 23.0331 126.877 22.9431C126.59 22.8551 126.355 22.8146 126.169 22.8261C125.838 22.7521 125.575 22.7071 125.375 22.6951C125.175 22.6831 124.979 22.6361 124.79 22.5536C124.481 22.4781 124.218 22.4331 123.995 22.4231C123.774 22.4121 123.565 22.3546 123.372 22.2476C123.071 22.2636 122.808 22.2391 122.583 22.1696C122.357 22.1006 122.077 22.0286 121.747 21.9531C121.626 21.8906 121.496 21.8286 121.353 21.7661C121.209 21.7036 121.101 21.6521 121.028 21.6091C120.687 21.3711 120.398 21.1776 120.158 21.0271C119.915 20.8786 119.657 20.6471 119.383 20.3361C119.134 20.0481 118.96 19.8521 118.861 19.7536C118.762 19.6541 118.636 19.4686 118.48 19.1971C118.427 19.0836 118.372 18.9296 118.314 18.7336C118.258 18.5391 118.21 18.3431 118.177 18.1466C118.142 17.9516 118.115 17.7651 118.094 17.5916C118.071 17.4181 118.06 17.2966 118.056 17.2276C118.038 16.9246 118.037 16.6801 118.05 16.4936C118.063 16.3056 118.075 16.1061 118.085 15.8961C118.098 15.7081 118.146 15.5071 118.229 15.2926C118.308 15.0791 118.404 14.8976 118.512 14.7521C118.742 14.2731 119.014 13.9256 119.33 13.7091C119.643 13.4946 120.002 13.2236 120.402 12.8966C120.491 12.8216 120.631 12.7266 120.824 12.6116C121.015 12.4966 121.219 12.3856 121.436 12.2796C121.651 12.1741 121.861 12.0806 122.067 11.9996C122.271 11.9186 122.444 11.8506 122.581 11.7956C122.766 11.7856 122.928 11.7481 123.063 11.6816C123.2 11.6161 123.374 11.5766 123.582 11.5651C123.768 11.5546 123.913 11.5351 124.016 11.5051C124.119 11.4776 124.264 11.4571 124.451 11.4461C124.567 11.4401 124.688 11.4396 124.818 11.4436C124.942 11.4471 125.119 11.3966 125.348 11.2901Z" fill="#00B9D9"/>
<path d="M147.906 32.4911C147.861 32.4881 147.778 32.4946 147.66 32.5116C147.542 32.5261 147.424 32.5366 147.308 32.5416C147.191 32.5456 147.092 32.5511 147.011 32.5571C146.929 32.5651 146.899 32.5691 146.922 32.5701L145.214 32.4651C144.846 32.3941 144.539 32.3471 144.296 32.3206C144.053 32.2931 143.837 32.2851 143.649 32.2986C143.602 32.2956 143.557 32.2751 143.515 32.2371C143.468 32.1986 143.436 32.1666 143.414 32.1431C143.403 31.9321 143.417 31.6191 143.455 31.2011C143.492 30.7836 143.518 30.4576 143.533 30.2246L143.562 29.7376C143.635 29.3451 143.666 28.9916 143.663 28.6766C143.659 28.3606 143.669 28.0061 143.695 27.6101L143.742 26.8436C143.888 26.3396 143.95 25.8071 143.928 25.2441C143.904 24.6841 143.906 24.1711 143.935 23.7051L144.485 14.8161C144.499 14.5846 144.448 14.4641 144.331 14.4561C144.007 14.4136 143.752 14.3856 143.566 14.3751C143.38 14.3646 143.123 14.3591 142.798 14.3616C142.657 14.3541 142.421 14.3041 142.088 14.2131C141.756 14.1236 141.53 14.0861 141.413 14.1016C141.294 14.1411 141.055 14.1261 140.699 14.0581C140.342 13.9891 140.105 13.9511 139.989 13.9441C139.873 13.9356 139.77 13.9251 139.676 13.9061C139.583 13.8896 139.493 13.8436 139.405 13.7681L139.539 11.6051C139.634 11.5661 139.775 11.5511 139.961 11.5631C140.147 11.5736 140.332 11.5846 140.518 11.5971C140.751 11.6121 140.96 11.6236 141.146 11.6361C141.331 11.6471 141.509 11.6461 141.671 11.6341C141.718 11.6356 141.88 11.6576 142.158 11.6981C142.435 11.7391 142.665 11.7771 142.851 11.8101C142.993 11.7726 143.133 11.7581 143.273 11.7671C143.623 11.7651 143.948 11.7866 144.25 11.8281C144.457 11.8641 144.607 11.8736 144.703 11.8556C144.797 11.8391 144.937 11.8361 145.123 11.8471L145.681 11.8821L146.618 12.0096C146.85 12.0236 147.083 12.0321 147.316 12.0351C147.55 12.0381 147.781 12.0576 148.013 12.0951C148.542 12.1751 149.059 12.2241 149.56 12.2436C150.061 12.2631 150.474 12.2601 150.802 12.2316C150.965 12.2431 151.254 12.2841 151.67 12.3566C152.085 12.4281 152.49 12.4891 152.883 12.5371C153.138 12.5756 153.347 12.5876 153.513 12.5741C153.676 12.5616 153.815 12.5706 153.929 12.6001L153.83 14.2041C153.824 14.2971 153.834 14.3561 153.855 14.3806C153.877 14.4051 153.859 14.5091 153.801 14.6906C153.771 14.7831 153.675 14.8301 153.512 14.8321C153.347 14.8331 153.219 14.8296 153.128 14.8246C152.516 14.8811 151.964 14.8811 151.464 14.8271C150.966 14.7741 150.484 14.7311 150.02 14.7036C149.835 14.6911 149.689 14.6821 149.586 14.6756C149.481 14.6706 149.358 14.6741 149.218 14.6891L149.168 15.4906C149.155 15.6771 149.133 15.9566 149.099 16.3271C149.063 16.6971 149.04 16.9881 149.026 17.1971C149.022 17.2901 149.016 17.3596 149.015 17.4061C149.012 17.4526 149.001 17.5166 148.985 17.5971C148.968 17.6781 148.942 17.7936 148.911 17.9411C148.878 18.0921 148.819 18.3031 148.731 18.5776C148.707 18.9726 148.687 19.3096 148.669 19.5891C148.653 19.8681 148.643 20.1241 148.639 20.3576C148.637 20.5896 148.628 20.8176 148.614 21.0371C148.6 21.2596 148.586 21.5201 148.567 21.8221L148.545 22.1711C148.427 22.5616 148.381 22.9536 148.402 23.3521C148.425 23.7501 148.424 24.1476 148.399 24.5421L147.906 32.4911Z" fill="#00B9D9"/>
<path d="M172.107 19.6041C172.122 20.1746 172.151 20.7666 172.195 21.3761C172.24 21.9886 172.21 22.5916 172.105 23.1876C172.145 23.4786 172.14 23.8151 172.083 24.1956C172.027 24.5756 171.975 24.8921 171.931 25.1451C171.877 25.4421 171.826 25.6991 171.775 25.9156C171.726 26.1311 171.625 26.3911 171.477 26.6956C171.428 26.9706 171.359 27.2886 171.27 27.6516C171.18 28.0146 171.044 28.3206 170.857 28.5716C170.759 28.7206 170.688 28.9196 170.642 29.1716C170.598 29.4246 170.495 29.6666 170.335 29.8981L169.751 30.7861C169.52 31.1481 169.275 31.5001 169.014 31.8426C168.75 32.1861 168.505 32.4681 168.275 32.6876C168.213 32.7706 168.107 32.8696 167.957 32.9846C167.806 33.1001 167.647 33.2246 167.481 33.3601C167.315 33.4966 167.145 33.6196 166.971 33.7306C166.797 33.8426 166.657 33.9346 166.549 34.0106C166.306 34.1801 166.066 34.3321 165.829 34.4666C165.59 34.6026 165.326 34.7016 165.028 34.7671C164.929 34.7976 164.83 34.8206 164.733 34.8391C164.636 34.8576 164.528 34.8676 164.408 34.8691C164.102 34.8616 163.819 34.8531 163.561 34.8431C163.303 34.8316 163.046 34.8161 162.79 34.7931C162.628 34.7646 162.416 34.7271 162.154 34.6796C161.889 34.6326 161.622 34.5791 161.349 34.5181C161.075 34.4571 160.827 34.3946 160.602 34.3311C160.375 34.2676 160.232 34.2171 160.167 34.1831C159.783 33.9481 159.427 33.7186 159.1 33.4946C158.775 33.2706 158.491 32.9721 158.25 32.5981L157.021 31.1366C156.59 30.6331 156.274 30.0861 156.073 29.4946C155.871 28.9026 155.733 28.2921 155.654 27.6626C155.59 27.3671 155.565 27.1031 155.584 26.8706C155.602 26.6356 155.571 26.4181 155.487 26.2126C155.492 25.5276 155.503 24.9031 155.521 24.3381C155.539 23.7741 155.614 23.1971 155.744 22.6041C155.815 22.3326 155.883 22.0266 155.944 21.6821C156.005 21.3376 156.087 21.0101 156.19 20.6976C156.226 20.6316 156.291 20.4666 156.386 20.2001C156.482 19.9336 156.579 19.6491 156.681 19.3471C156.782 19.0466 156.881 18.7566 156.978 18.4776C157.075 18.2001 157.14 18.0286 157.176 17.9636C157.5 17.3351 157.82 16.7721 158.135 16.2716C158.448 15.7726 158.826 15.3486 159.268 15.0021L160.461 14.0801C160.596 13.9861 160.758 13.9026 160.948 13.8301C161.139 13.7581 161.31 13.6876 161.466 13.6216L162.3 13.3096C162.559 13.1906 162.916 13.1061 163.376 13.0581C163.832 13.0111 164.215 12.9896 164.522 12.9976C164.827 13.0056 165.16 13.0291 165.519 13.0691C165.878 13.1101 166.242 13.1621 166.61 13.2291C166.93 13.2856 167.193 13.3686 167.398 13.4756C167.604 13.5841 167.836 13.7086 168.095 13.8486C168.182 13.8876 168.312 13.9536 168.486 14.0431C168.658 14.1341 168.843 14.2501 169.045 14.3911C169.244 14.5336 169.443 14.6996 169.648 14.8896C169.85 15.0791 170.016 15.2696 170.148 15.4591C170.256 15.6441 170.428 15.8456 170.662 16.0641C170.893 16.2836 171.049 16.5061 171.127 16.7336C171.156 16.8331 171.203 16.9361 171.267 17.0411C171.332 17.1486 171.39 17.2531 171.441 17.3566C171.576 17.6651 171.731 18.0476 171.91 18.5056C172.089 18.9631 172.154 19.3296 172.107 19.6041ZM163.536 26.0556C163.627 26.0726 163.688 26.0611 163.721 26.0191C163.751 25.9766 163.826 25.9546 163.943 25.9521C164.109 25.9576 164.238 25.9041 164.329 25.7896C164.418 25.6766 164.533 25.5721 164.667 25.4781C164.849 24.9911 164.983 24.5421 165.068 24.1311C165.152 23.7206 165.24 23.2631 165.33 22.7581C165.365 22.5751 165.35 22.3886 165.289 22.2001C165.228 22.0116 165.102 21.8541 164.912 21.7256C164.727 21.5741 164.576 21.4866 164.462 21.4676C164.348 21.4471 164.189 21.4771 163.984 21.5596C163.937 21.5511 163.89 21.5551 163.842 21.5691C163.79 21.5831 163.741 21.5986 163.69 21.6136L163.541 21.6566C163.391 21.8431 163.252 22.0191 163.127 22.1861C163.002 22.3531 162.923 22.5286 162.891 22.7121L162.586 24.4301C162.565 24.8061 162.605 25.1081 162.707 25.3396C162.806 25.5696 162.968 25.7886 163.192 25.9936L163.536 26.0556Z" fill="#00B9D9"/>
<path d="M175.163 27.2571C175.196 27.0256 175.257 26.8126 175.342 26.6176C175.427 26.4231 175.495 26.2241 175.548 26.0211C175.639 25.6591 175.72 25.3141 175.791 24.9836C175.861 24.6546 175.943 24.3081 176.035 23.9471L176.436 22.3546C176.466 22.2431 176.49 22.1221 176.511 21.9951C176.53 21.8686 176.543 21.7451 176.55 21.6266L177.345 18.4776C177.437 18.2126 177.527 17.8811 177.615 17.4831C177.705 17.0846 177.763 16.8296 177.791 16.7171C177.809 16.6481 177.814 16.5781 177.81 16.5046C177.805 16.4316 177.817 16.3756 177.852 16.3356C177.964 16.3641 178.085 16.3826 178.215 16.3911C178.346 16.4006 178.512 16.4301 178.716 16.4811C178.902 16.5046 179.087 16.5281 179.276 16.5511C179.46 16.5751 179.667 16.6146 179.891 16.6721L181.416 17.0566C181.597 17.1026 181.753 17.1486 181.886 17.1936C182.02 17.2396 182.193 17.3136 182.408 17.4156C182.425 17.4436 182.443 17.4606 182.466 17.4661C182.482 17.4941 182.548 17.5226 182.66 17.5511C182.808 17.5411 183.008 17.5796 183.261 17.6671C183.515 17.7556 183.775 17.8461 184.039 17.9361C184.215 18.0041 184.372 18.0926 184.513 18.2011C184.654 18.3076 184.781 18.3756 184.894 18.4051C184.939 18.4161 185.042 18.4836 185.202 18.6086C185.363 18.7331 185.533 18.8716 185.71 19.0261C185.887 19.1791 186.05 19.3151 186.199 19.4376C186.349 19.5596 186.455 19.6401 186.517 19.6801C186.782 19.8671 187.022 20.0786 187.24 20.3131C187.456 20.5486 187.607 20.7841 187.691 21.0211C187.861 21.2091 187.963 21.4216 187.999 21.6586C188.035 21.8971 188.098 22.1226 188.188 22.3366C188.232 22.4446 188.248 22.5681 188.236 22.7101C188.226 22.8506 188.251 22.9891 188.313 23.1246C188.385 23.3111 188.411 23.5636 188.391 23.8826C188.37 24.2016 188.323 24.5321 188.249 24.8741C188.174 25.2151 188.082 25.5571 187.97 25.9026C187.859 26.2466 187.758 26.5511 187.667 26.8161C187.564 27.0306 187.466 27.2286 187.373 27.4091C187.279 27.5886 187.177 27.7976 187.07 28.0346C187.019 28.1416 186.937 28.2536 186.823 28.3686C186.71 28.4836 186.618 28.5926 186.543 28.6946C186.253 29.0781 185.856 29.4206 185.345 29.7241L184.954 29.9866C184.853 30.0086 184.761 30.0446 184.676 30.0961C184.59 30.1461 184.493 30.1941 184.386 30.2386C184.245 30.3226 184.093 30.3806 183.929 30.4116C183.765 30.4426 183.612 30.5006 183.47 30.5836C183.154 30.5036 182.876 30.4936 182.632 30.5526C182.39 30.6111 182.145 30.5601 181.896 30.4026C181.671 30.3446 181.46 30.3216 181.266 30.3331C181.07 30.3441 180.883 30.3261 180.702 30.2801L180.5 30.2276C180.47 30.3406 180.546 30.5646 180.727 30.8981C180.906 31.2321 181.023 31.5261 181.08 31.7796C181.214 32.0076 181.337 32.2111 181.446 32.3941C181.555 32.5786 181.676 32.7946 181.805 33.0436C182.029 33.3886 182.189 33.6631 182.28 33.8681C182.373 34.0706 182.532 34.3446 182.758 34.6906C182.866 34.8381 182.971 35.0991 183.082 35.4756C183.191 35.8511 183.299 36.1126 183.406 36.2591C183.49 36.4971 183.542 36.6536 183.557 36.7296C183.574 36.8066 183.615 36.9021 183.683 37.0146C183.8 37.3086 183.891 37.5661 183.956 37.7861C184.021 38.0056 184.098 38.2241 184.188 38.4396C184.022 38.6131 183.813 38.7821 183.555 38.9451C183.298 39.1091 182.987 39.2401 182.626 39.3421C182.599 39.2621 182.546 39.1831 182.47 39.1036C182.393 39.0231 182.345 38.9336 182.323 38.8326C182.288 38.7756 182.17 38.6011 181.967 38.3096C181.765 38.0191 181.6 37.7481 181.47 37.4996C181.397 37.3136 181.263 37.0566 181.069 36.7326C180.876 36.4071 180.655 36.0681 180.407 35.7181C180.159 35.3666 179.947 35.0206 179.77 34.6751C179.594 34.3286 179.457 34.0601 179.363 33.8686C179.311 33.7836 179.226 33.6481 179.103 33.4616C178.983 33.2756 178.851 33.0861 178.71 32.8931C178.565 32.7011 178.432 32.5116 178.312 32.3241C178.191 32.1371 178.104 32.0006 178.054 31.9166C177.996 31.9496 177.96 31.9821 177.939 32.0131C177.92 32.0441 177.892 32.0796 177.859 32.1191C177.825 32.1586 177.802 32.2011 177.791 32.2446C177.675 32.6971 177.553 33.1166 177.418 33.5031C177.285 33.8891 177.17 34.2736 177.073 34.6581C177.021 34.8611 176.962 35.0696 176.896 35.2796C176.831 35.4921 176.764 35.7316 176.696 36.0036L176.396 37.1881C176.351 37.1771 176.27 37.1626 176.155 37.1456C176.039 37.1286 175.911 37.1146 175.77 37.1031C175.509 37.0851 175.264 37.0406 175.028 36.9691C174.794 36.8981 174.565 36.8331 174.338 36.7766C174.045 36.7021 173.803 36.6411 173.611 36.5926C173.418 36.5441 173.244 36.4516 173.085 36.3156C172.973 36.2871 172.905 36.2696 172.882 36.2641C172.86 36.2586 172.806 36.1861 172.721 36.0441L173.432 33.3776L173.61 32.9546L173.818 31.8536L174.758 28.4166C174.879 28.1341 174.949 27.9246 174.972 27.7861C174.998 27.6466 175.059 27.4706 175.163 27.2571ZM182.056 24.7856C182.169 24.5251 182.263 24.2551 182.333 23.9726C182.405 23.6906 182.458 23.4331 182.493 23.2026C182.527 23.0676 182.504 22.9651 182.425 22.8971C182.388 22.7681 182.344 22.6731 182.299 22.6131C182.255 22.5541 182.205 22.4926 182.148 22.4301C182.024 22.2546 181.881 22.1056 181.72 21.9796C181.559 21.8561 181.395 21.7481 181.226 21.6571C181.159 21.6391 181.091 21.6711 181.023 21.7491C180.988 21.7901 180.967 21.8201 180.963 21.8426L180.09 25.2976L180.667 25.4416C180.807 25.3591 180.935 25.3241 181.051 25.3426C181.167 25.3596 181.284 25.3236 181.403 25.2326C181.567 25.1551 181.696 25.0961 181.789 25.0616C181.882 25.0231 181.971 24.9326 182.056 24.7856Z" fill="#00B9D9"/>
<path d="M199.489 36.8501C199.462 36.6516 199.438 36.4396 199.411 36.2151C199.386 35.9916 199.355 35.7376 199.322 35.4551C199.242 34.9116 199.19 34.4021 199.167 33.9271C199.141 33.4536 199.104 33.1366 199.058 32.9796L198.719 31.5326C198.701 31.4176 198.688 31.2671 198.683 31.0786C198.68 30.8916 198.672 30.7556 198.663 30.6711C198.636 30.4741 198.62 30.2726 198.608 30.0686C198.6 29.8666 198.575 29.6756 198.538 29.4966C198.503 29.2666 198.463 28.9821 198.419 28.6426C198.376 28.3026 198.344 28.1271 198.323 28.1166L197.616 29.5196L196.069 31.9021C196.015 32.0051 195.892 32.2231 195.702 32.5566C195.51 32.8901 195.301 33.2476 195.073 33.6271C194.842 34.0056 194.633 34.3636 194.443 34.6966C194.25 35.0301 194.128 35.2481 194.074 35.3511C193.824 35.7711 193.59 36.1346 193.375 36.4421C193.157 36.7486 192.944 37.1241 192.735 37.5676C192.626 37.7726 192.509 37.9546 192.385 38.1116C192.261 38.2701 192.154 38.4591 192.066 38.6741C192.011 38.7771 191.959 38.8746 191.909 38.9666C191.861 39.0586 191.799 39.1506 191.723 39.2431C191.59 39.5406 191.434 39.8346 191.254 40.1221C191.076 40.4081 190.909 40.6956 190.757 40.9841C190.455 40.9546 190.2 40.8986 189.994 40.8161C189.789 40.7321 189.541 40.6141 189.254 40.4601C189.162 40.4361 189.045 40.3946 188.906 40.3336C188.766 40.2741 188.633 40.2146 188.503 40.1601C188.377 40.1041 188.267 40.0601 188.178 40.0266C188.092 39.9931 188.057 39.9816 188.079 39.9921C187.976 39.9381 187.851 39.8846 187.708 39.8346C187.562 39.7836 187.408 39.7151 187.243 39.6271C187.161 39.5836 187.081 39.5351 187.005 39.4806C186.928 39.4261 186.876 39.3261 186.849 39.1796L187.48 38.2896L187.579 38.1056C187.723 37.7856 187.864 37.4716 188.003 37.1626C188.14 36.8541 188.289 36.5976 188.452 36.3926C188.537 36.2791 188.64 36.1236 188.76 35.9236C188.88 35.7241 189 35.5116 189.121 35.2841C189.24 35.0586 189.358 34.8371 189.473 34.6221C189.589 34.4046 189.679 34.2101 189.747 34.0336C189.88 33.6841 190.005 33.3871 190.122 33.1466C190.236 32.9036 190.438 32.5166 190.722 31.9816C190.971 31.5606 191.164 31.2271 191.295 30.9801C191.426 30.7336 191.596 30.3896 191.805 29.9461L191.953 29.6686C192.107 29.3816 192.228 29.1166 192.318 28.8736C192.407 28.6311 192.505 28.4341 192.615 28.2786C192.927 27.8901 193.18 27.4786 193.374 27.0411C193.567 26.6031 193.81 26.1581 194.104 25.7081C194.31 25.3691 194.496 25.0336 194.66 24.6986C194.826 24.3646 195.001 24.0236 195.188 23.6731C195.373 23.3251 195.576 22.9836 195.791 22.6496C196.008 22.3171 196.21 21.9771 196.396 21.6261C196.483 21.4616 196.553 21.3726 196.599 21.3576C196.647 21.3441 196.752 21.3791 196.916 21.4686L200.091 23.1586C200.139 23.3166 200.172 23.5521 200.191 23.8651C200.208 24.1781 200.232 24.4341 200.257 24.6316C200.312 24.9256 200.344 25.2471 200.356 25.5961C200.369 25.9446 200.382 26.2556 200.396 26.5261C200.373 26.9641 200.407 27.3231 200.494 27.6066C200.579 27.8906 200.601 28.2186 200.563 28.5941C200.609 28.7501 200.633 28.9151 200.634 29.0881C200.635 29.2596 200.655 29.4086 200.694 29.5341C200.708 29.7536 200.734 30.0306 200.766 30.3641C200.799 30.6986 200.853 30.9916 200.931 31.2451C201.011 31.7351 201.073 32.1771 201.116 32.5691C201.156 32.9626 201.234 33.3981 201.347 33.8806C201.39 34.1941 201.425 34.4766 201.45 34.7261C201.476 34.9771 201.498 35.2541 201.521 35.5571C201.588 35.8286 201.654 36.1356 201.725 36.4761C201.795 36.8166 201.876 37.1961 201.97 37.6151C202.022 37.6166 202.139 37.5801 202.322 37.5066C202.507 37.4331 202.657 37.3626 202.774 37.2911C203.059 37.2051 203.374 37.0701 203.723 36.8871C204.071 36.7026 204.397 36.5476 204.703 36.4206L205.339 35.9676C205.423 35.9076 205.517 35.8586 205.617 35.8191C205.717 35.7796 205.804 35.7391 205.878 35.7011L207.383 34.8796C207.576 34.7181 207.881 34.5501 208.304 34.3801C208.724 34.2086 209.173 33.9726 209.649 33.6721L209.901 33.5696C210.294 33.3301 210.657 33.0941 210.992 32.8631C211.325 32.6321 211.666 32.3856 212.018 32.1241C212.283 31.9236 212.524 31.7806 212.739 31.6971C212.954 31.6146 213.206 31.4786 213.494 31.2866C213.663 31.1656 213.766 31.0826 213.804 31.0376C213.842 30.9916 213.924 30.9226 214.053 30.8326L216.857 32.3271C217.162 32.5956 217.387 32.7676 217.531 32.8446C217.673 32.9211 217.778 32.9756 217.839 33.0076C217.942 33.0626 218.036 33.1201 218.123 33.1796C218.211 33.2406 218.337 33.3121 218.5 33.4016L217.827 34.6651C217.559 34.9716 217.349 35.2536 217.196 35.5161C217.043 35.7771 216.896 36.0411 216.754 36.3101L215.096 39.4226C214.898 39.7931 214.72 40.1521 214.559 40.5026C214.399 40.8531 214.216 41.2231 214.006 41.6136C213.973 41.7271 213.926 41.8411 213.867 41.9536C213.805 42.0666 213.743 42.1851 213.677 42.3091C213.576 42.5456 213.495 42.7131 213.43 42.8096C213.364 42.9076 213.282 43.0742 213.183 43.3112L212.969 43.7122C212.883 43.8242 212.75 44.0241 212.571 44.3106C212.392 44.5982 212.206 44.8962 212.017 45.2032C211.827 45.5117 211.646 45.8112 211.479 46.1037C211.308 46.3967 211.191 46.6037 211.124 46.7277C211.038 46.8922 210.938 47.1022 210.828 47.3602C210.717 47.6172 210.617 47.8287 210.53 47.9932C210.312 48.4042 210.08 48.8282 209.833 49.2637C209.588 49.7002 209.298 50.1077 208.967 50.4832L208.589 51.1922C208.453 51.2517 208.313 51.2507 208.174 51.1897C208.035 51.1287 207.915 51.0717 207.812 51.0167C207.649 50.8767 207.464 50.7652 207.258 50.6822C207.051 50.5982 206.906 50.5337 206.826 50.4917L204.452 49.2267C204.563 48.9162 204.686 48.6132 204.819 48.3132C204.952 48.0157 205.089 47.7317 205.232 47.4657C205.296 47.3417 205.396 47.1697 205.526 46.9492C205.655 46.7287 205.79 46.4912 205.927 46.2332C206.065 45.9767 206.192 45.7342 206.312 45.5087C206.433 45.2827 206.515 45.1022 206.561 44.9692C206.637 44.8247 206.764 44.6097 206.945 44.3217C207.123 44.0357 207.252 43.8192 207.329 43.6757L207.856 42.6111C207.965 42.4051 208.052 42.2331 208.112 42.0941C208.173 41.9551 208.231 41.8346 208.286 41.7316L208.536 41.1126C208.557 41.0721 208.593 41.0181 208.641 40.9511C208.69 40.8851 208.725 40.8316 208.747 40.7911C208.916 40.2741 209.157 39.8086 209.471 39.3951C209.782 38.9806 210.033 38.5476 210.224 38.0931C210.32 37.9616 210.401 37.8331 210.466 37.7106C210.533 37.5866 210.597 37.4626 210.665 37.3396L211.455 35.7036L211.636 35.3651L211.546 35.2381C211.515 35.2471 211.493 35.2626 211.481 35.2826C211.084 35.3861 210.707 35.5236 210.354 35.6906C210 35.8591 209.629 36.0636 209.237 36.3031L207.477 37.3056C207.277 37.4356 207.04 37.5806 206.77 37.7411C206.5 37.9006 206.229 38.0651 205.953 38.2346C205.678 38.4036 205.417 38.5606 205.168 38.7061C204.919 38.8511 204.696 38.9621 204.496 39.0411C204.389 39.0906 204.236 39.1666 204.036 39.2706C203.835 39.3746 203.616 39.4886 203.377 39.6131C203.14 39.7386 202.901 39.8671 202.657 40.0011C202.414 40.1351 202.186 40.2526 201.976 40.3501L201.755 40.4696C201.629 40.4561 201.483 40.3976 201.315 40.2941C201.145 40.1911 201.009 40.1116 200.907 40.0576C200.722 39.9591 200.533 39.8651 200.343 39.7776C200.152 39.6891 199.965 39.5946 199.78 39.4966C199.703 39.2456 199.658 38.9306 199.648 38.5571C199.635 38.1811 199.613 37.8791 199.578 37.6476L199.489 36.8501Z" fill="#00B9D9"/>
<path d="M99.6266 127.904C95.4676 127.141 91.1481 127.29 87.0831 128.471C87.2256 127.817 87.3291 127.164 87.4011 126.513C87.1191 126.52 86.8381 126.531 86.5546 126.529C71.7306 126.438 59.7445 114.304 59.8355 99.4798C59.8885 90.8413 64.0366 83.1718 70.4191 78.2893C70.6886 76.5107 70.8556 74.7252 70.8591 72.9327C61.813 78.3238 55.7135 88.1778 55.644 99.4538C55.5385 116.589 69.3931 130.615 86.5286 130.72C91.1996 130.749 95.6366 129.734 99.6266 127.904Z" fill="#F9BB58"/>
<path d="M146.445 155.122C146.631 155.037 146.519 154.216 145.77 153.142C145.043 152.081 143.581 150.822 141.586 150.32C139.591 149.822 137.708 150.243 136.566 150.836C135.4 151.43 134.913 152.101 135.038 152.264C135.174 152.458 135.863 152.158 136.961 151.907C138.049 151.649 139.598 151.488 141.194 151.886C142.789 152.287 144.079 153.159 144.917 153.9C145.767 154.639 146.234 155.229 146.445 155.122Z" fill="#F993EF"/>
<path d="M154.995 151.576C155.08 151.391 154.592 150.915 153.567 150.606C152.554 150.293 151.006 150.259 149.471 150.845C147.937 151.434 146.808 152.494 146.264 153.404C145.708 154.319 145.664 154.999 145.85 155.08C146.264 155.271 147.499 153.276 150.048 152.352C152.562 151.336 154.815 151.994 154.995 151.576Z" fill="#F993EF"/>
<path d="M96.8376 138.123C96.9686 137.953 96.7806 137.534 96.2451 137.087C95.7166 136.641 94.8226 136.209 93.7646 136.083C92.7066 135.958 91.7361 136.169 91.1181 136.478C90.4926 136.788 90.2121 137.152 90.2991 137.347C90.5011 137.759 91.9151 137.464 93.5741 137.685C95.2386 137.859 96.5446 138.476 96.8376 138.123Z" fill="#F993EF"/>
<path d="M74.8151 116.6C75.0171 116.525 75.0051 115.819 74.6756 114.732C74.3411 113.676 73.6486 112.096 72.0586 110.979C70.3766 109.847 68.4105 110.025 67.318 110.686C66.177 111.38 66.0665 112.289 66.2465 112.345C66.458 112.469 66.8995 111.955 67.7825 111.729C68.6345 111.489 70.0361 111.552 71.1466 112.31C72.3111 113.113 73.0721 114.324 73.6386 115.208C74.2021 116.101 74.6001 116.68 74.8151 116.6Z" fill="#F993EF"/>
<path d="M83.6411 115.612C83.8211 115.521 83.7196 114.79 82.9341 113.959C82.1826 113.146 80.6351 112.316 78.8061 112.57C76.9801 112.846 75.7321 114.081 75.2426 115.074C74.7256 116.094 74.8351 116.823 75.0336 116.859C75.2641 116.916 75.5576 116.365 76.1796 115.724C76.7841 115.083 77.8006 114.35 79.0371 114.166C80.2751 113.991 81.4581 114.406 82.2196 114.849C82.9986 115.287 83.4361 115.732 83.6411 115.612Z" fill="#F993EF"/>
<path d="M120.921 163.053C120.796 162.852 120.208 163.036 119.329 163.08C118.463 163.138 117.239 162.996 116.309 162.269C115.411 161.558 115.046 160.375 115.036 159.566C115.002 158.735 115.259 158.183 115.071 158.034C114.937 157.892 114.233 158.263 113.906 159.405C113.583 160.489 113.819 162.329 115.312 163.537C116.802 164.683 118.575 164.581 119.574 164.195C120.622 163.804 121.038 163.219 120.921 163.053Z" fill="#F993EF"/>
<path d="M190.105 130.537C189.858 130.504 189.636 131.432 188.82 132.585C188.038 133.727 186.507 135.102 184.491 135.451C182.472 135.78 180.575 134.982 179.463 134.159C178.315 133.336 177.801 132.531 177.579 132.643C177.4 132.707 177.556 133.782 178.708 135.014C179.806 136.217 182.087 137.469 184.759 137.042C187.423 136.572 189.17 134.643 189.813 133.146C190.499 131.606 190.295 130.54 190.105 130.537Z" fill="#F993EF"/>
<path d="M201.353 130.583C201.124 130.502 200.736 131.216 199.865 132.038C199.018 132.86 197.576 133.777 195.854 133.9C194.131 134.011 192.579 133.298 191.629 132.599C190.655 131.901 190.173 131.247 189.958 131.358C189.776 131.434 189.905 132.351 190.858 133.44C191.771 134.506 193.655 135.655 195.964 135.511C198.271 135.341 199.982 133.948 200.743 132.768C201.54 131.56 201.543 130.633 201.353 130.583Z" fill="#F993EF"/>
<path d="M132.157 124.043C132.26 123.854 131.875 123.383 131.042 122.902C130.222 122.43 128.889 121.95 127.328 122.09C125.749 122.236 124.474 123.066 123.861 123.883C123.228 124.708 123.211 125.384 123.401 125.459C123.615 125.559 123.988 125.14 124.652 124.705C125.306 124.263 126.31 123.808 127.479 123.697C129.865 123.503 131.943 124.485 132.157 124.043Z" fill="#F993EF"/>
<path d="M109.543 61.3962C109.413 61.1917 108.718 61.4807 107.627 61.5342C106.556 61.6042 105.006 61.3592 103.812 60.3697C102.626 59.3702 102.109 57.8882 101.989 56.8217C101.848 55.7382 102.008 55.0032 101.784 54.9112C101.61 54.8202 101.012 55.4642 100.847 56.8167C100.672 58.1202 101.099 60.1827 102.777 61.6072C104.476 63.0052 106.582 63.0592 107.834 62.6557C109.136 62.2542 109.664 61.5512 109.543 61.3962Z" fill="#F993EF"/>
<path d="M120.569 64.1787C120.398 64.0122 119.742 64.4822 118.645 64.9952C117.565 65.5092 115.956 66.0327 114.267 65.7622C112.609 65.4862 111.313 64.3967 110.677 63.4662C110.009 62.5272 109.881 61.7337 109.634 61.7402C109.446 61.7157 109.123 62.6317 109.671 64.0037C110.187 65.3347 111.724 66.9687 114.007 67.3552C116.26 67.7067 118.189 66.8082 119.247 65.9652C120.34 65.1032 120.72 64.3147 120.569 64.1787Z" fill="#F993EF"/>
<path d="M87.7837 79.1858C87.9132 79.0248 87.5342 78.4288 86.6102 77.8058C85.6976 77.1833 84.2082 76.6123 82.4966 76.5578C80.7851 76.5083 79.2636 76.9878 78.3151 77.5543C77.3556 78.1203 76.9411 78.6923 77.0606 78.8608C77.3236 79.2428 79.5236 78.0413 82.4476 78.1708C85.3746 78.2188 87.4977 79.5513 87.7837 79.1858Z" fill="#F993EF"/>
<path d="M150.028 59.1317C149.865 58.9497 149.199 59.3842 148.067 59.6157C146.963 59.8617 145.286 59.8277 143.921 58.9172C142.566 57.9932 141.905 56.4512 141.72 55.3352C141.51 54.1992 141.663 53.4192 141.434 53.3362C141.26 53.2507 140.66 53.9632 140.581 55.3997C140.487 56.7807 141.1 58.9342 143.019 60.2552C144.963 61.5397 147.19 61.3012 148.435 60.6962C149.737 60.0842 150.172 59.2612 150.028 59.1317Z" fill="#F993EF"/>
<path d="M162.965 65.1517C162.785 64.9782 162.024 65.6427 160.609 66.1442C159.229 66.6562 157.059 66.9177 155.073 66.0032C153.096 65.0702 151.901 63.2402 151.407 61.8542C150.881 60.4477 150.901 59.4382 150.653 59.4117C150.469 59.3682 150.003 60.4062 150.305 62.1502C150.576 63.8412 151.836 66.2517 154.391 67.4662C156.965 68.6432 159.621 68.0587 161.09 67.1792C162.621 66.2882 163.116 65.2647 162.965 65.1517Z" fill="#F993EF"/>
<path d="M174.855 62.5877C174.618 62.5257 174.282 63.3652 173.419 64.3977C172.585 65.4227 171.083 66.6452 169.174 66.9012C167.28 67.1377 165.532 66.2797 164.572 65.4227C163.572 64.5632 163.209 63.7322 162.971 63.8087C162.786 63.8372 162.75 64.9022 163.737 66.2007C164.673 67.4627 166.799 68.8137 169.382 68.5017C171.937 68.1492 173.662 66.3947 174.367 65.0327C175.114 63.6307 175.047 62.6202 174.855 62.5877Z" fill="#F993EF"/>
<path d="M181.486 99.2943C181.653 99.1913 181.342 98.2393 180.161 97.1998C179.018 96.1748 176.873 95.1678 174.396 95.4713C171.922 95.7933 170.095 97.3013 169.243 98.5783C168.357 99.8788 168.292 100.878 168.48 100.937C168.706 101.027 169.147 100.244 170.117 99.3123C171.063 98.3823 172.652 97.3233 174.599 97.0723C176.547 96.8318 178.349 97.4618 179.497 98.1278C180.668 98.7898 181.289 99.4383 181.486 99.2943Z" fill="#F993EF"/>
<path d="M194.042 98.3443C194.196 98.2138 193.769 97.3283 192.566 96.3203C191.4 95.3358 189.28 94.2323 186.733 94.4948C184.15 94.7948 182.323 96.5383 181.662 98.0063C180.963 99.5178 181.273 100.569 181.458 100.547C181.709 100.563 181.848 99.6513 182.646 98.5848C183.406 97.5293 184.963 96.3203 186.91 96.0988C188.891 95.8873 190.716 96.6033 191.925 97.2643C193.151 97.9283 193.865 98.5073 194.042 98.3443Z" fill="#F993EF"/>
<path d="M174.337 84.8998C174.458 84.7313 174.11 84.1898 173.207 83.7533C172.327 83.3188 170.846 83.0768 169.354 83.6418C167.864 84.2123 166.919 85.3788 166.551 86.2883C166.167 87.2148 166.267 87.8513 166.47 87.8963C166.886 88.0243 167.735 85.9733 169.928 85.1498C172.113 84.3053 174.111 85.2723 174.337 84.8998Z" fill="#F993EF"/>
<path d="M197.257 81.3312C197.454 81.3407 197.716 80.6322 197.295 79.5642C196.91 78.5422 195.676 77.1952 193.776 77.0817C191.873 77.0237 190.523 78.2547 190.048 79.2377C189.533 80.2632 189.73 80.9927 189.928 81.0012C190.164 81.0362 190.396 80.4802 190.987 79.8867C191.55 79.2922 192.579 78.6482 193.704 78.6942C194.828 78.7492 195.795 79.4832 196.302 80.1262C196.837 80.7707 197.018 81.3447 197.257 81.3312Z" fill="#F993EF"/>
<path d="M165.1 168.021C165.206 167.848 164.705 167.264 163.556 166.917C162.44 166.567 160.623 166.575 159.016 167.622C157.416 168.681 156.688 170.346 156.566 171.509C156.428 172.701 156.765 173.392 156.966 173.364C157.203 173.345 157.299 172.683 157.673 171.785C158.032 170.892 158.744 169.735 159.902 168.971C161.063 168.212 162.408 168.018 163.37 168.042C164.343 168.056 164.988 168.23 165.1 168.021Z" fill="#F993EF"/>
<path d="M203.896 111.669C204.019 111.504 203.621 110.911 202.619 110.412C201.642 109.915 200.007 109.602 198.321 110.145C196.636 110.692 195.495 111.904 194.993 112.879C194.473 113.87 194.498 114.584 194.695 114.646C194.916 114.725 195.272 114.202 195.921 113.543C196.561 112.883 197.554 112.091 198.817 111.68C200.082 111.273 201.351 111.333 202.256 111.494C203.168 111.648 203.763 111.863 203.896 111.669Z" fill="#F993EF"/>
<path d="M62.2516 91.7343C62.1271 91.5413 61.3951 91.8173 60.3056 92.2783C59.2171 92.7228 57.741 93.3368 56.1315 93.2568C54.508 93.2123 53.358 92.3338 52.8425 91.4213C52.302 90.5318 52.368 89.7793 52.135 89.7218C51.962 89.6298 51.3795 90.4578 51.791 91.8648C51.9965 92.5388 52.449 93.2938 53.2125 93.8853C53.9795 94.4803 54.999 94.8178 56.0535 94.8683C58.1976 94.9583 59.8761 93.9888 60.8681 93.2703C61.8796 92.5168 62.3686 91.9153 62.2516 91.7343Z" fill="#F993EF"/>
</svg>
