<svg width="20" height="19" viewBox="0 0 20 19" fill="none" xmlns="http://www.w3.org/2000/svg">
<path d="M17.172 0.926637C16.7237 1.25183 11.8546 4.5741 8.82237 7.25476C10.8966 7.93152 12.5138 9.53992 13.1905 11.6317C15.88 8.5907 19.2022 3.73035 19.5274 3.27332C20.6349 1.70007 18.7013 -0.189574 17.172 0.926637ZM8.81358 11.6317C9.49034 12.3085 9.98252 13.1874 10.1319 13.952C10.7999 13.829 11.3536 13.5214 11.9161 12.9764C12.0128 12.8886 12.1007 12.8007 12.1886 12.704C11.837 10.4803 9.95616 8.59949 7.7501 8.25672C7.65342 8.33582 7.55674 8.4325 7.46885 8.52918C6.92393 9.09168 6.60752 9.66297 6.50205 10.3309C7.24912 10.4628 8.13682 10.9462 8.81358 11.6317ZM0.463968 16.7997C2.07237 18.9266 5.41221 19.5595 7.5128 17.9686C9.29698 16.6327 9.60459 14.6024 8.32139 12.9061C7.16123 11.368 5.17491 10.9901 3.85655 12.0096C2.4503 13.0731 3.0128 14.4354 2.18662 15.0507C1.47471 15.5956 0.877054 15.244 0.420023 15.5868C0.0596712 15.8593 0.0684603 16.2987 0.463968 16.7997Z" fill="white"/>
</svg>
