<svg width="76" height="60" viewBox="0 0 76 60" fill="none" xmlns="http://www.w3.org/2000/svg">
<path d="M47.7199 31.12C47.7199 36.6429 43.2428 41.12 37.7199 41.12C32.1971 41.12 27.7199 36.6429 27.7199 31.12C27.7199 25.5972 32.1971 21.1201 37.7199 21.1201C43.2428 21.1201 47.7199 25.5972 47.7199 31.12Z" fill="url(#paint0_linear_72_352)"/>
<path fill-rule="evenodd" clip-rule="evenodd" d="M59.7599 4.94535e-05H16.24C11.9365 -0.0105763 7.80574 1.69151 4.759 4.73075C1.71225 7.76998 -1.31182e-05 11.8966 0 16.2V43.8C-1.31182e-05 48.1034 1.71225 52.23 4.759 55.2693C7.80574 58.3085 11.9365 60.0106 16.24 60H59.7599C64.0633 60.0106 68.1941 58.3085 71.2409 55.2693C74.2876 52.23 75.9999 48.1034 75.9999 43.8V16.2C75.9999 11.8966 74.2876 7.76998 71.2409 4.73075C68.1941 1.69151 64.0633 -0.0105763 59.7599 4.94535e-05ZM37.7199 47.12C28.8834 47.12 21.72 39.9565 21.72 31.12C21.72 22.2835 28.8834 15.12 37.7199 15.12C46.5565 15.12 53.7199 22.2835 53.7199 31.12C53.7199 35.3635 52.0342 39.4331 49.0336 42.4337C46.0331 45.4343 41.9634 47.12 37.7199 47.12ZM59.7199 19.12C60.8245 19.12 61.7199 18.2246 61.7199 17.12V13.12C61.7199 12.0155 60.8245 11.12 59.7199 11.12H55.7199C54.6153 11.12 53.7199 12.0155 53.7199 13.12V17.12C53.7199 18.2246 54.6153 19.12 55.7199 19.12H59.7199Z" fill="url(#paint1_linear_72_352)"/>
<defs>
<linearGradient id="paint0_linear_72_352" x1="0" y1="0" x2="76" y2="60" gradientUnits="userSpaceOnUse">
<stop stop-color="#91D59F"/>
<stop offset="1" stop-color="#E3CD75"/>
</linearGradient>
<linearGradient id="paint1_linear_72_352" x1="0" y1="0" x2="76" y2="60" gradientUnits="userSpaceOnUse">
<stop stop-color="#91D59F"/>
<stop offset="1" stop-color="#E3CD75"/>
</linearGradient>
</defs>
</svg>
