<svg width="196" height="196" viewBox="0 0 196 196" fill="none" xmlns="http://www.w3.org/2000/svg">
<g clip-path="url(#clip0_53_292)">
<path d="M146.687 173.215C147.915 170.086 150.727 161.965 150.315 154.167C150.143 150.939 149.736 147.149 148.007 143.519C147.419 142.28 146.691 141.112 145.831 140.025C145.798 138.392 145.725 136.802 145.658 135.341L145.626 134.644C145.081 122.631 143.284 110.68 140.275 99.0347C145.182 96.1361 148.754 91.256 150.613 87.0749C153.201 81.255 154.082 72.8492 150.217 67.1889C146.84 62.2449 140.809 60.6187 133.818 63.0806C132.784 63.445 131.414 64.0219 129.941 64.7872C132.37 61.9038 133.634 57.9846 133.211 53.8231C132.726 49.0482 130.211 45.2109 126.476 43.0905C129.414 43.7049 132.145 42.6461 133.687 40.4491C136.747 36.1076 133.248 31.8006 132.099 30.3865C131.689 29.8812 131.227 29.3288 130.711 28.7228C136.016 26.3337 139.227 23.7949 140.267 21.1607C140.952 19.4254 140.904 17.5565 140.136 15.9028C139.705 14.9741 138.004 12.0406 133.744 12.0012C134.962 9.4949 136.631 4.92067 132.691 1.81147C131.45 0.815772 129.882 0.308162 128.275 0.382045C126.11 0.481576 123.945 1.82448 121.929 3.74658C120.677 1.44205 118.718 -0.132838 115.611 0.00995125C115.545 0.0130138 115.47 0.0176075 115.404 0.0229669C110.801 0.381279 109.147 4.2519 108.624 8.50341C106.145 6.80066 104.353 6.1204 102.342 6.21266C100.801 6.28348 99.3271 6.87799 98.2334 7.85033C96.7687 9.12816 95.9396 11.0036 95.9583 12.9961C95.9878 16.0594 98.2598 19.365 100.54 21.916C99.775 22.1756 99.0825 22.429 98.4661 22.674C93.5447 24.6336 91.3975 27.5388 92.0804 31.2861C92.4724 33.4815 94.122 37.067 100.718 37.0161L91.9369 50.1017C91.8462 49.7863 91.7439 49.4728 91.6306 49.1619C89.6779 43.7957 84.8407 40.3683 79.0093 40.2175C78.6261 40.2072 78.2494 40.2114 77.8831 40.2282C70.3195 40.5758 64.6749 46.7334 64.7534 54.5515C64.7832 57.5547 65.6273 60.2643 67.0904 62.4804C66.1468 61.9777 65.2828 61.575 64.5761 61.2844C61.9389 60.1992 59.42 59.703 57.0883 59.8102C53.0649 59.9951 49.6395 61.9463 47.4437 65.304C43.8717 70.7663 44.4256 78.8184 46.5587 84.3749C48.199 88.6475 51.513 93.706 56.2626 96.8554C52.6546 108.326 50.2398 120.169 49.0726 132.138L49.0071 132.801C48.8647 134.248 48.7101 135.821 48.5929 137.442C47.6558 138.5 46.8504 139.649 46.185 140.877C44.271 144.416 43.6673 148.178 43.3296 151.392C42.5131 159.157 44.8996 167.413 45.9642 170.603C50.6119 184.529 64.3774 193.089 85.7744 195.356C91.2723 195.938 95.5173 196.115 99.5376 195.93C100.524 195.885 101.505 195.816 102.455 195.726C103.868 195.59 105.272 195.564 106.681 195.534C107.625 195.514 108.568 195.492 109.516 195.449C111.048 195.378 112.34 195.262 113.581 195.082C123.177 193.689 130.665 190.894 136.471 186.539C141.095 183.069 144.627 178.462 146.687 173.215Z" fill="white"/>
<path d="M117.241 23.6738L110.487 33.7395L110.207 36.4938L106.436 39.7768L97.8567 52.5624L97.3587 55.641L94.0416 58.2479L86.2433 69.8697L85.3988 73.4651L81.8881 76.3603L75.7041 85.5765L125 94.2932L123.276 78.6063L121.435 76.1142L122.771 74.0033L121.712 64.3691L120.239 61.6684L121.156 59.3102L120.251 51.0729L118.703 47.6811L119.641 45.5213L118.582 35.8817L116.764 33.6017L118.076 31.2795L117.241 23.6738Z" fill="#14B9A1"/>
<path d="M115.439 36.9066C116.494 36.5644 117.54 36.2226 118.583 35.8811L118.077 31.2793C116.74 31.7134 115.396 32.1498 114.04 32.5893C112.848 32.9752 111.664 33.3584 110.487 33.7393L106.437 39.7762C109.389 38.8494 112.39 37.8943 115.439 36.9066Z" fill="#33E2C5"/>
<path d="M94.0415 58.2477C101.746 55.9635 110.073 53.3921 118.746 50.583C119.216 50.4307 119.68 50.2783 120.147 50.126L119.641 45.5215C118.878 45.7692 118.116 46.0165 117.347 46.2661C110.577 48.4588 104.039 50.5677 97.8566 52.5626L94.0415 58.2477Z" fill="#33E2C5"/>
<path d="M81.8882 76.3597C93.2137 73.2271 106.962 69.1402 121.712 64.3681L121.206 59.7617C121.022 59.8214 120.839 59.8808 120.654 59.9409C107.698 64.1373 95.5726 68.0339 85.224 71.3881L81.8882 76.3597Z" fill="#33E2C5"/>
<path d="M91.2732 88.3289C100.823 85.6071 111.722 82.3218 123.277 78.6059L122.771 74.0029C107.884 78.8229 94.1348 83.2356 82.9907 86.8643L91.2732 88.3289Z" fill="#33E2C5"/>
<path d="M77.3951 56.7736C81.0061 66.6436 83.8068 76.7445 85.7932 87.0651C86.3678 90.0503 90.9443 88.9091 90.3709 85.9301C88.3845 75.6095 85.5838 65.5086 81.9727 55.6385C80.9407 52.818 76.3492 53.9151 77.3951 56.7736Z" fill="#F7931C"/>
<path d="M120.526 57.8928C116.408 67.5623 113.088 77.5043 110.568 87.7078C109.839 90.6593 105.328 89.2823 106.056 86.337C108.575 76.1335 111.895 66.1914 116.014 56.522C117.19 53.7585 121.719 55.0922 120.526 57.8928Z" fill="#F7931C"/>
<path d="M119.203 63.2703C109.071 63.0073 109.479 47.2963 119.61 47.5589C129.742 47.8219 129.334 63.5333 119.203 63.2703Z" fill="#995E17"/>
<path d="M116.936 26.1758C117.813 26.1517 118.289 21.6628 118 16.1496C117.711 10.6363 116.767 6.22207 115.892 6.28983C115.017 6.35797 114.541 10.8468 114.828 16.3161C115.115 21.7853 116.059 26.1995 116.936 26.1758Z" fill="#EA62AE"/>
<path d="M128.756 6.71384C128.083 6.17445 124.283 9.82648 120.939 15.3195C117.58 20.8033 116.067 25.8525 116.854 26.204C117.666 26.5749 120.403 22.2733 123.65 16.9751C126.879 11.6659 129.456 7.26662 128.756 6.71384Z" fill="#EA62AE"/>
<path d="M134.432 18.5469C134.061 17.7465 129.931 18.8766 125.103 20.8254C120.279 22.7809 116.524 24.84 116.814 25.6738C117.1 26.4976 121.388 25.7588 126.294 23.7704C131.204 21.7882 134.799 19.3378 134.432 18.5469Z" fill="#EA62AE"/>
<path d="M118.07 25.8C118.591 24.9559 115.166 21.9236 110.936 18.3424C106.688 14.7811 103.108 11.9272 102.367 12.5864C101.645 13.2162 104.192 17.2916 108.661 21.0439C113.117 24.8116 117.575 26.6207 118.07 25.8Z" fill="#EA62AE"/>
<path d="M98.2697 30.1818C98.4228 31.0363 102.856 30.952 108.06 29.5284C113.266 28.1154 117.129 25.9387 116.828 25.1249C116.522 24.2926 112.284 25.0912 107.224 26.4632C102.169 27.8474 98.1104 29.3098 98.2697 30.1818Z" fill="#EA62AE"/>
<path d="M128.547 36.8265C128.805 36.4616 128.22 35.5827 127.218 34.3489C126.213 33.1109 124.801 31.4862 123.204 29.6648C121.605 27.8495 120.07 26.2168 118.816 25.1449C117.566 24.0712 116.624 23.5456 116.284 23.8235C115.945 24.101 116.272 25.1292 117.077 26.5671C117.884 27.9996 119.15 29.8688 120.823 31.7687C122.49 33.6709 124.293 35.1846 125.755 36.0539C127.221 36.9268 128.3 37.1783 128.547 36.8265Z" fill="#EA62AE"/>
<path d="M144.868 84.5199C148.199 77.0287 147.25 65.0152 135.906 69.0107C133.037 70.0213 128.763 72.3775 126.984 74.8489C124.584 78.1817 122.101 82.0994 121.248 86.1515C121.283 85.9861 119.527 85.0249 119.326 84.9043C110.212 79.4235 98.6427 78.0324 88.3182 80.1543C86.0688 80.6168 83.8538 81.2538 81.7139 82.0887C80.6585 82.5006 79.6219 82.9603 78.6101 83.4699C78.3299 83.6111 75.8948 84.74 75.9315 84.9755C75.2892 80.8847 73.013 76.8434 70.7892 73.3904C69.1401 70.8302 64.9946 68.2554 62.1817 67.0974C51.061 62.5193 49.4895 74.4673 52.4276 82.1208C54.3084 87.0208 58.5882 92.386 64.0345 93.4127C59.5655 106.111 56.6355 119.35 55.3286 132.748C54.3941 142.327 52.8736 154.995 64.0418 157.9C73.6469 160.398 83.2406 161.737 92.992 162.472L92.9851 162.733C94.189 162.739 95.388 162.73 96.587 162.72C97.7836 162.792 98.9811 162.863 100.183 162.92L100.19 162.659C109.967 162.431 119.617 161.591 129.339 159.594C140.643 157.272 139.781 144.542 139.345 134.928C138.734 121.48 136.495 108.107 132.691 95.1939C138.184 94.4512 142.736 89.3154 144.868 84.5199Z" fill="#FECB4C"/>
<path d="M128.844 91.2484C131.5 89.9384 133.936 88.4504 136.323 86.5138C138.71 84.576 140.516 81.8549 141.081 78.8322C141.267 77.8362 141.288 76.7092 140.652 75.9202C140.012 75.1251 138.88 74.9077 137.862 74.9884C135.281 75.1932 133.067 76.914 131.329 78.8334C128.666 81.7734 127.011 85.608 126.41 89.5556C127.235 90.1057 128.048 90.6673 128.844 91.2484Z" fill="#F7931C"/>
<path d="M68.0448 89.6707C65.4608 88.2248 63.1046 86.6124 60.8219 84.5548C58.5381 82.4956 56.8763 79.685 56.469 76.6371C56.3346 75.6326 56.3721 74.506 57.0478 73.7511C57.7288 72.9904 58.8703 72.8319 59.8829 72.9655C62.45 73.3043 64.5716 75.1372 66.2077 77.1443C68.7144 80.2187 70.1683 84.1341 70.5637 88.1073C69.7112 88.613 68.8698 89.1317 68.0448 89.6707Z" fill="#F7931C"/>
<path d="M84.1224 122.601C84.047 125.509 82.6279 127.83 80.9527 127.787C79.2776 127.743 77.9806 125.351 78.0564 122.444C78.1318 119.537 79.5509 117.215 81.2261 117.258C82.9013 117.302 84.1978 119.694 84.1224 122.601Z" fill="#995E17"/>
<path d="M117.182 123.459C117.107 126.366 115.688 128.688 114.013 128.644C112.338 128.601 111.041 126.209 111.116 123.301C111.192 120.394 112.611 118.073 114.286 118.116C115.961 118.159 117.258 120.551 117.182 123.459Z" fill="#995E17"/>
<path d="M100.521 89.3713C98.3653 81.4161 87.2997 83.071 82.7224 87.6288C81.654 88.6926 80.9749 90.22 81.1931 91.7118C81.4082 93.183 82.4441 94.4176 83.6397 95.3011C85.8795 96.9564 88.7387 97.6202 91.5237 97.5892C93.8722 97.5631 96.2977 97.0303 98.1467 95.5821C99.9961 94.1347 101.135 91.6387 100.521 89.3713Z" fill="#F7BF41"/>
<path d="M77.5152 102.512C78.0545 99.5715 80.9038 92.8758 76.2645 92.3391C72.1596 91.8644 69.7 94.407 69.3046 98.3033C69.1867 99.4636 69.2709 100.673 69.7686 101.728C70.6578 103.614 72.7618 104.71 74.8397 104.885C75.4304 104.934 76.0674 104.908 76.552 104.567C77.1871 104.119 77.375 103.276 77.5152 102.512Z" fill="#F7BF41"/>
<path d="M99.9626 106.939C99.9224 102.342 93.1726 99.9033 89.3908 99.9742C86.8241 100.022 84.0475 101.954 83.6946 104.635C83.4534 106.464 84.4058 108.31 85.8161 109.501C87.2264 110.692 89.0367 111.31 90.8478 111.665C92.776 112.043 94.834 112.14 96.6524 111.396C98.4711 110.651 99.9798 108.904 99.9626 106.939Z" fill="#F7BF41"/>
<path d="M109.956 97.8813C109.691 93.7301 103.279 93.0759 101.801 96.6919C100.915 98.8601 101.776 101.54 104.178 102.294C106.294 102.959 108.772 101.684 109.632 99.6388C109.865 99.0849 109.994 98.4812 109.956 97.8813Z" fill="#F7BF41"/>
<path d="M111.171 93.0883C112.47 93.8309 113.987 94.4549 115.431 94.0648C117.21 93.584 118.31 91.4073 117.642 89.6897C117.204 88.563 116.196 87.7741 115.229 87.0494C113.092 85.4492 108.423 82.4863 105.865 84.903C102.884 87.7185 109.117 91.9134 111.171 93.0883Z" fill="#F7BF41"/>
<path d="M122.453 100.469C121.492 98.4864 118.604 96.3334 116.469 97.1986C114.322 98.0687 112.969 100.706 111.949 102.514C110.182 105.644 107.745 109.781 112.948 110.943C117.311 111.918 121.454 108.951 122.635 104.789C123.038 103.371 123.096 101.795 122.453 100.469Z" fill="#F7BF41"/>
<path d="M144.036 154.5C143.886 151.667 143.549 148.781 142.33 146.22C140.293 141.94 135.717 138.992 130.978 138.906C125.757 138.812 120.747 140.254 119.145 145.815C119.277 145.354 104.858 143.211 103.55 143.101C98.3024 142.655 93.2451 142.564 87.9676 142.889C86.8739 142.956 74.8157 144.346 74.8904 144.666C73.5785 139.03 68.6501 137.33 63.4316 137.153C58.6936 136.993 53.9716 139.7 51.7145 143.869C50.3643 146.363 49.8786 149.227 49.5819 152.048C49.036 157.24 50.2736 163.655 51.9277 168.612C56.7068 182.932 72.9308 187.672 86.4364 189.103C91.5565 189.645 96.7157 189.958 101.853 189.466C105.459 189.12 109.017 189.39 112.677 188.859C119.714 187.838 126.933 185.833 132.697 181.508C136.329 178.783 139.173 175.153 140.834 170.918C142.743 166.055 144.312 159.712 144.036 154.5Z" fill="#F7931C"/>
<path d="M62.2124 148.528C66.5604 148.641 66.7354 141.898 62.3874 141.786C58.0394 141.673 57.8645 148.415 62.2124 148.528Z" fill="#995E17"/>
<path d="M130.671 150.304C135.018 150.417 135.194 143.674 130.846 143.562C126.498 143.449 126.323 150.191 130.671 150.304Z" fill="#995E17"/>
<path d="M83.4097 165.379C83.389 165.628 83.3592 165.874 83.3527 166.126C83.2623 169.603 84.5336 172.799 86.6812 175.203C89.0072 177.807 103.329 178.179 105.786 175.699C108.056 173.41 109.491 170.284 109.581 166.807C109.588 166.554 109.57 166.307 109.563 166.058L83.4097 165.379Z" fill="#724514"/>
<path d="M96.1265 179.58C99.8922 179.678 103.319 178.169 105.777 175.69C104.055 172.221 100.524 169.794 96.3833 169.686C92.2425 169.579 88.5904 171.82 86.6909 175.195C89.0165 177.799 92.3608 179.482 96.1265 179.58Z" fill="#EA62AE"/>
<path d="M78.4377 62.2127C88.5692 62.4757 88.9769 46.7643 78.8454 46.5013C68.7135 46.2383 68.3058 61.9497 78.4377 62.2127Z" fill="#995E17"/>
</g>
<defs>
<clipPath id="clip0_53_292">
<rect width="196" height="196" fill="white"/>
</clipPath>
</defs>
</svg>
