<svg width="100" height="95" viewBox="0 0 100 95" fill="none" xmlns="http://www.w3.org/2000/svg">
<path d="M50 51.9409C51.0127 51.9409 51.9409 51.6034 52.9114 50.6329L66.6245 37.4262C67.2996 36.7511 67.6793 35.9916 67.6793 34.9789C67.6793 33.0802 66.1603 31.6878 64.3038 31.6878C63.3333 31.6878 62.4051 32.0675 61.73 32.827L56.076 38.8186L53.5443 41.8565L53.9662 35.5274V3.88186C53.9662 1.81435 52.1941 0 50 0C47.8481 0 46.076 1.81435 46.076 3.88186V35.5274L46.4979 41.8987L43.9241 38.8186L38.3122 32.827C37.6371 32.0675 36.6667 31.6878 35.6962 31.6878C33.8397 31.6878 32.3207 33.0802 32.3207 34.9789C32.3207 35.9916 32.7004 36.7511 33.4177 37.4262L47.1308 50.6329C48.1013 51.6034 49.0295 51.9409 50 51.9409ZM13.8819 94.557H86.076C95.2321 94.557 100 89.8312 100 80.8017V56.0338C100 51.5612 99.4515 49.1561 97.4262 46.5401L83.5021 28.6498C78.4388 22.1097 75.2321 18.7764 67.5106 18.7764H61.7722V25.6962H67.8903C70.8439 25.6962 73.7553 28.1435 75.6962 30.6329L90.1266 49.6203C91.5612 51.519 91.0127 52.3207 88.8608 52.3207H62.4051C60.211 52.3207 59.1983 53.8819 59.1983 55.5274V55.6962C59.1983 60.2532 55.654 65.1055 50 65.1055C44.3038 65.1055 40.7595 60.2532 40.7595 55.6962V55.5274C40.7595 53.8819 39.789 52.3207 37.5527 52.3207H11.1392C8.94515 52.3207 8.48101 51.3924 9.87342 49.6203L24.3038 30.6329C26.2447 28.1435 29.1561 25.6962 32.1097 25.6962H38.2278V18.7764H32.4895C24.7679 18.7764 21.5612 22.0675 16.4979 28.6498L2.53165 46.5401C0.548523 49.1983 0 51.5612 0 56.0338V80.8017C0 89.8312 4.76793 94.557 13.8819 94.557ZM14.3038 86.1181C10.4219 86.1181 8.31224 84.0928 8.31224 80.0422V59.7468H33.5865C34.9367 67.2574 41.4768 72.827 50 72.827C58.5232 72.827 65.0633 67.2574 66.4135 59.7468H91.6878V80.0422C91.6878 84.0928 89.5359 86.1181 85.654 86.1181H14.3038Z" fill="url(#paint0_linear_83_170)"/>
<defs>
<linearGradient id="paint0_linear_83_170" x1="0" y1="0" x2="100" y2="95" gradientUnits="userSpaceOnUse">
<stop stop-color="#94D59F"/>
<stop offset="1" stop-color="#E2CE76"/>
</linearGradient>
</defs>
</svg>
