<svg width="220" height="232" viewBox="0 0 220 232" fill="none" xmlns="http://www.w3.org/2000/svg">
<path d="M43.6068 171.148C43.6068 171.148 57.1782 231.076 68.0711 231.076C78.9639 231.076 90.2139 222.755 94.8568 214.184C99.4996 205.612 68.2496 180.969 61.2854 172.398C54.3211 163.826 43.6068 171.148 43.6068 171.148Z" fill="#FD6B6A"/>
<path d="M23.2865 142.656C22.9482 143.671 8.90975 143.84 11.4468 161.6C13.9839 179.359 33.7731 171.579 33.7731 171.579L23.2865 142.656Z" fill="black"/>
<path d="M55.5788 168.846C54.7726 171.241 54.7329 174.577 55.6796 179.128C55.6796 179.128 77.1418 200.591 81.7919 209.533C84.0448 213.866 84.615 220.196 84.8925 225.58C89.2398 222.504 92.8551 218.55 95.0266 214.541C99.6768 205.956 68.3777 181.274 61.4024 172.689C59.6252 170.502 57.6042 169.352 55.5788 168.846Z" fill="black"/>
<path d="M65.7077 112.497C65.7077 112.497 57.0686 110.85 51.4404 112.644C38.3514 116.817 27.0974 127.31 22.7484 135.339C16.5292 146.821 17.9644 170.262 28.7283 179.113C35.0555 184.315 52.6564 182.025 70.8328 175.891C83.5785 171.589 77.8799 156.579 77.8799 156.579L65.7077 112.497Z" fill="#F8E383"/>
<path d="M163.366 10.2389L52.6476 118.713C44.155 130.789 47.4021 164.053 67.0094 167.626L197.201 174.984L163.366 10.2389Z" fill="#FD6B6A"/>
<path d="M216.121 88.5835C224.551 149.647 216.14 184.445 199.422 186.753C182.705 189.06 164.01 158.005 155.581 96.9407C147.151 35.8768 155.562 2.43259 172.28 0.124811C188.997 -2.18294 207.692 27.5196 216.121 88.5835Z" fill="#F8E383"/>
<path d="M208.361 89.6547C211.372 111.461 211.887 132.702 209.794 148.705C207.701 164.707 203.171 174.16 197.201 174.984C194.245 175.392 191.024 173.669 187.723 169.914C184.421 166.159 181.104 160.446 177.96 153.099C174.815 145.753 171.906 136.917 169.398 127.098C166.889 117.278 164.831 106.667 163.341 95.8695C161.85 85.0719 160.956 74.2998 160.711 64.168C160.465 54.0362 160.872 44.7432 161.908 36.8197C162.944 28.8961 164.59 22.4971 166.751 17.9881C168.911 13.479 171.545 10.9482 174.501 10.5402C177.457 10.1321 180.678 11.8548 183.979 15.6098C187.281 19.3648 190.598 25.0787 193.742 32.4252C196.887 39.7716 199.796 48.6068 202.304 58.4263C204.813 68.2458 206.871 78.8572 208.361 89.6547Z" fill="black"/>
<path d="M160.784 66.682C159.951 72.3398 161.09 86.0942 162.457 95.9959C163.812 105.812 165.953 115.987 168.731 124.423L188.49 113.941L183.077 71.5714L160.784 66.682Z" fill="#F8E383"/>
<path d="M191.702 91.9545C192.484 97.6223 192.618 103.143 192.074 107.302C191.53 111.462 190.353 113.919 188.801 114.133C188.033 114.239 187.196 113.791 186.338 112.815C185.479 111.839 184.617 110.354 183.8 108.445C182.983 106.535 182.226 104.239 181.575 101.687C180.923 99.1343 180.388 96.3762 180 93.5698C179.218 87.9019 179.084 82.381 179.628 78.2217C180.172 74.0625 181.349 71.6055 182.901 71.3913C184.453 71.1771 186.252 73.2232 187.902 77.0795C189.553 80.9359 190.919 86.2866 191.702 91.9545Z" fill="white"/>
<path d="M69.9461 189.273C69.9461 189.273 75.3032 199.094 79.9461 199.451C84.5889 199.809 87.7148 192.24 87.0889 190.88C85.7943 188.067 66.6425 183.826 69.9461 189.273Z" fill="#80D092"/>
<path d="M26.0474 143.392C27.0576 142.635 38.9269 138.468 37.0328 142.003C35.1388 145.539 28.9516 147.686 26.5525 146.928C24.1534 146.17 23.522 144.781 26.0474 143.392Z" fill="white"/>
<path d="M25.6686 151.726C26.6788 150.969 38.5481 146.802 36.654 150.337C34.76 153.873 28.5728 156.019 26.1737 155.262C23.7746 154.504 23.1432 153.115 25.6686 151.726Z" fill="white"/>
<path d="M27.8152 161.449C28.8253 160.691 40.6946 156.524 38.8006 160.06C36.9066 163.595 30.7194 165.742 28.3203 164.984C25.9211 164.227 25.2898 162.838 27.8152 161.449Z" fill="white"/>
<path d="M144.355 99.4287C142.839 100.016 150.759 145.401 153.462 149.456C156.497 154.008 109.957 171.208 78.0233 156.845C60.5217 148.974 59.4965 128.522 62.137 109.724L52.7511 118.92C44.2452 131.015 47.4969 164.332 67.1351 167.91L179.595 174.266C165.393 147.229 148.988 111.856 145.368 101.399C144.87 99.96 144.541 99.3565 144.355 99.4287Z" fill="black"/>
<path d="M43.1867 0.0763474C37.5152 0.0763778 31.8993 1.19351 26.6595 3.36396C21.4198 5.53441 16.6588 8.71567 12.6486 12.7261C8.63829 16.7365 5.45722 21.4976 3.28697 26.7374C1.11673 31.9772 -0.00018943 37.5932 2.40978e-08 43.2647C0.00051253 52.3156 2.8446 61.1375 8.13052 68.4845C13.4164 75.8314 20.877 81.3319 29.4584 84.209C32.7283 97.2786 46.3844 100.383 51.8012 100.383C60.5638 100.383 49.4769 98.1121 45.6326 86.3807C56.645 85.756 67.0011 80.9412 74.5766 72.924C82.1522 64.9068 86.373 54.2949 86.3734 43.2647C86.3736 37.5932 85.2567 31.9772 83.0864 26.7374C80.9162 21.4976 77.7351 16.7365 73.7248 12.7261C69.7145 8.71567 64.9536 5.53441 59.7139 3.36396C54.4741 1.19351 48.8582 0.0763776 43.1867 0.0763474Z" fill="#80D092"/>
<path d="M0.035347 45.0175C0.391072 53.762 3.39511 62.1921 8.6495 69.1909C13.9039 76.1897 21.1606 81.4271 29.4584 84.209C32.7283 97.2786 46.3844 100.383 51.8012 100.383C60.5638 100.383 49.4768 98.1121 45.6326 86.3807C55.5732 85.8167 65.0135 81.8351 72.3557 75.1101C65.0207 75.6291 57.0146 75.591 48.3224 74.7182C24.4412 72.3201 9.3895 59.0864 0.035347 45.0175Z" fill="black"/>
<path d="M43.5176 15.1655C42.1926 15.1654 40.8805 15.4264 39.6563 15.9334C38.4321 16.4405 37.3198 17.1837 36.3829 18.1206C35.4459 19.0575 34.7027 20.1699 34.1957 21.3941C33.6886 22.6183 33.4277 23.9303 33.4278 25.2554C33.4281 27.3281 34.0668 29.3505 35.257 31.0475C36.4473 32.7445 38.1313 34.0336 40.0801 34.7397C36.5549 36.3968 29.961 41.8757 28.6963 47.2749L26.6963 55.813C25.0473 62.8533 60.3389 63.2226 60.3389 55.9917L58.3389 47.2749C57.2158 42.3796 50.4245 36.5183 46.8985 34.7602C48.861 34.0622 50.5593 32.7738 51.7604 31.072C52.9614 29.3702 53.6063 27.3383 53.6065 25.2554C53.6066 23.9304 53.3457 22.6184 52.8387 21.3943C52.3317 20.1702 51.5886 19.0579 50.6518 18.1209C49.7149 17.184 48.6027 16.4408 47.3786 15.9337C46.1546 15.4266 44.8426 15.1656 43.5176 15.1655Z" fill="white"/>
<path d="M67.0803 23.3526C66.1695 23.3526 65.2677 23.532 64.4262 23.8805C63.5848 24.229 62.8202 24.7398 62.1762 25.3838C61.5322 26.0279 61.0213 26.7924 60.6728 27.6339C60.3243 28.4753 60.1449 29.3772 60.145 30.288C60.1452 31.7127 60.5842 33.1028 61.4023 34.2692C62.2205 35.4356 63.378 36.3217 64.7175 36.8071C62.2944 37.9461 57.7621 41.712 56.8928 45.4232L55.5181 51.2919C54.3846 56.1311 78.6425 56.3849 78.6425 51.4147L77.2678 45.4232C76.4958 42.0584 71.8278 38.0296 69.4042 36.8212C70.7531 36.3413 71.9204 35.4558 72.746 34.286C73.5715 33.1163 74.0148 31.7197 74.0149 30.2879C74.015 29.3772 73.8357 28.4754 73.4872 27.634C73.1387 26.7926 72.6279 26.0281 71.984 25.3841C71.34 24.7401 70.5756 24.2292 69.7342 23.8807C68.8928 23.5321 67.991 23.3527 67.0803 23.3526Z" fill="white"/>
<path d="M22.5267 22.6384C21.616 22.6383 20.7141 22.8177 19.8726 23.1662C19.0312 23.5147 18.2666 24.0255 17.6226 24.6696C16.9786 25.3136 16.4678 26.0781 16.1192 26.9196C15.7707 27.761 15.5914 28.6629 15.5914 29.5737C15.5916 30.9984 16.0307 32.3885 16.8488 33.5549C17.6669 34.7213 18.8244 35.6075 20.1639 36.0928C17.7409 37.2318 13.2085 40.9977 12.3392 44.7089L10.9645 50.5776C9.83106 55.4168 34.0889 55.6706 34.0889 50.7004L32.7142 44.7089C31.9422 41.3441 27.2742 37.3153 24.8506 36.1069C26.1995 35.6271 27.3669 34.7415 28.1924 33.5717C29.018 32.402 29.4612 31.0054 29.4614 29.5737C29.4614 28.6629 29.2821 27.7611 28.9336 26.9197C28.5851 26.0783 28.0744 25.3138 27.4304 24.6698C26.7865 24.0258 26.022 23.5149 25.1806 23.1664C24.3392 22.8178 23.4374 22.6384 22.5267 22.6384Z" fill="white"/>
<path d="M149.183 160.08C141.379 160.106 133.853 162.983 128.022 168.17C122.192 173.357 118.458 180.496 117.523 188.244C112.788 187.504 106.408 185.489 103.254 180.022C97.8888 170.722 100.571 188.428 108.083 194.867C111.507 197.801 115.405 199.874 118.643 201.268C120.62 207.859 124.669 213.637 130.189 217.745C135.71 221.853 142.408 224.072 149.289 224.072C153.491 224.072 157.651 223.244 161.533 221.636C165.415 220.028 168.943 217.672 171.914 214.7C174.885 211.729 177.242 208.202 178.85 204.32C180.458 200.438 181.285 196.277 181.285 192.075C181.285 183.589 177.914 175.451 171.913 169.451C165.913 163.451 157.775 160.08 149.289 160.08C149.253 160.08 149.218 160.08 149.183 160.08Z" fill="#599EFC"/>
<path d="M139.205 187.999C139.205 187.999 141.31 183.943 144.647 181.993C147.984 180.042 148.653 171.946 150.912 171.997C153.171 172.048 152.502 182.308 152.502 182.308C152.502 182.308 155.465 182.616 158.046 182.616C160.562 182.616 162.769 183.078 162.718 185.542C162.667 188.006 161.537 186.972 162.307 188.769C163.078 190.566 162.564 192.106 161.948 193.236C161.332 194.365 163.232 195.649 161.743 197.394C160.254 199.14 162.153 199.704 159.843 200.628C157.533 201.552 153.837 204.376 147.214 202.99C140.591 201.604 139.302 203.195 137.152 203.195C135.015 203.195 134.277 201.039 134.277 197.599C134.277 194.16 133.642 190.086 135.144 189.099C135.996 188.539 138.281 189.437 139.205 187.999Z" fill="white"/>
</svg>
