<svg width="128" height="128" viewBox="0 0 128 128" fill="none" xmlns="http://www.w3.org/2000/svg">
<circle cx="64" cy="64" r="48" fill="black"/>
<path d="M64 120C64 124.418 60.4045 128.052 56.0207 127.501C46.4409 126.297 37.2212 122.936 29.0729 117.629C18.6811 110.861 10.4795 101.22 5.46514 89.878C0.450771 78.5357 -1.16032 65.9809 0.827751 53.74C2.81582 41.4992 8.31741 30.0996 16.6636 20.9272C25.0098 11.7548 35.8411 5.20487 47.8405 2.07366C59.84 -1.05756 72.4907 -0.635124 84.2545 3.28959C96.0184 7.2143 106.389 14.4722 114.104 24.1809C120.154 31.7937 124.368 40.6562 126.468 50.0801C127.429 54.3927 124.15 58.3141 119.751 58.7299C115.353 59.1457 111.515 55.8863 110.375 51.6176C108.682 45.2753 105.698 39.3192 101.578 34.1357C95.7914 26.8542 88.0138 21.4107 79.1909 18.4672C70.368 15.5237 60.88 15.2068 51.8804 17.5552C42.8808 19.9037 34.7574 24.8161 28.4977 31.6954C22.2381 38.5747 18.1119 47.1244 16.6208 56.305C15.1298 65.4857 16.3381 74.9018 20.0989 83.4085C23.8596 91.9152 30.0109 99.1461 37.8047 104.222C43.3529 107.835 49.5633 110.246 56.0368 111.335C60.3939 112.068 64 115.582 64 120Z" fill="url(#paint0_linear_6_2)"/>
<path d="M46.1196 67.9658C46.1196 71.13 47.8544 73.9698 50.8901 76.059V78.0062C49.8963 78.3713 49.2819 79.345 49.2819 80.6837V86.14C49.2819 87.8641 50.2938 89 51.8298 89H52.5887C54.1247 89 55.1366 87.8641 55.1366 86.14V80.6837C55.1366 79.3652 54.5403 78.3713 53.5645 78.0062V77.5397C56.4015 78.8176 59.9613 79.5681 63.991 79.5681C74.6162 79.5681 81.8804 74.416 81.8804 67.9658V58.8787L87.0123 56.2418C88.2953 55.5724 89 54.2946 89 52.9153C89 51.5563 88.2953 50.2581 87.0123 49.609L69.1409 40.4408C67.1713 39.4469 65.5811 38.9803 63.991 39.0006C62.4189 38.9803 60.8287 39.4469 58.841 40.4408L40.9877 49.609C39.6867 50.2581 39 51.5563 39 52.9153C39 54.2946 39.6867 55.5724 40.9877 56.2418L46.1196 58.8787V67.9658ZM63.991 62.8543C62.8345 62.8543 61.7322 62.5297 60.2324 61.7387L55.4257 59.3046L62.3104 55.2479C62.8525 55.4102 63.4489 55.5116 64.0632 55.5116C66.1232 55.5116 68.1109 54.4365 68.1109 52.9153C68.1109 51.4346 66.1232 50.3798 64.0632 50.3798C61.9852 50.3798 59.9794 51.4346 59.9794 52.9153C59.9794 53.1181 60.0155 53.3007 60.0697 53.4629L52.5526 57.8239L44.1319 53.5238C43.8428 53.3818 43.6982 53.179 43.6982 52.9153C43.6982 52.6719 43.8428 52.4487 44.1319 52.3068L60.2324 44.0918C61.7322 43.3211 62.8345 42.9762 63.991 42.9762C65.1475 42.9762 66.2497 43.3211 67.7676 44.0918L83.8681 52.3068C84.1391 52.4487 84.2837 52.6719 84.2837 52.9153C84.2837 53.179 84.1391 53.3818 83.8681 53.5238L67.7676 61.7387C66.2497 62.5297 65.1475 62.8543 63.991 62.8543ZM49.6072 67.9658V60.6636L50.8901 61.3127V71.272C50.0408 70.2376 49.6072 69.122 49.6072 67.9658ZM63.991 66.8502C65.5811 66.8705 67.1713 66.4039 69.1409 65.3898L78.3928 60.6636V67.9658C78.3928 72.0834 72.6827 75.8764 63.991 75.8764C59.6722 75.8764 56.0763 74.9231 53.5645 73.4627V62.692L58.841 65.3898C60.8287 66.4039 62.4189 66.8705 63.991 66.8502Z" fill="white"/>
<defs>
<linearGradient id="paint0_linear_6_2" x1="133" y1="-22" x2="-25" y2="160" gradientUnits="userSpaceOnUse">
<stop stop-color="#E6CC73"/>
<stop offset="1" stop-color="#8ED5A0"/>
</linearGradient>
</defs>
</svg>
