<svg width="40" height="40" viewBox="0 0 40 40" fill="none" xmlns="http://www.w3.org/2000/svg">
<path d="M16.3532 32.7065C19.6571 32.7065 22.7532 31.7091 25.3299 30.0052L34.4312 39.1273C35.0338 39.7091 35.8026 40 36.6338 40C38.3584 40 39.626 38.6493 39.626 36.9455C39.626 36.1558 39.3558 35.387 38.774 34.8052L29.7351 25.7247C31.6052 23.0649 32.7065 19.8442 32.7065 16.3532C32.7065 7.35584 25.3506 0 16.3532 0C7.37662 0 0 7.35584 0 16.3532C0 25.3506 7.35584 32.7065 16.3532 32.7065ZM16.3532 28.3429C9.76623 28.3429 4.36364 22.9403 4.36364 16.3532C4.36364 9.76623 9.76623 4.36364 16.3532 4.36364C22.9403 4.36364 28.3429 9.76623 28.3429 16.3532C28.3429 22.9403 22.9403 28.3429 16.3532 28.3429Z" fill="#B5B2C1"/>
</svg>
