<svg width="28" height="29" viewBox="0 0 28 29" fill="none" xmlns="http://www.w3.org/2000/svg">
<path d="M13.6544 14.5698C17.4093 14.5698 20.4505 11.2493 20.4505 7.18406C20.4505 3.18085 17.4093 0 13.6544 0C9.91493 0 6.8427 3.22739 6.85821 7.21509C6.87373 11.2648 9.89941 14.5698 13.6544 14.5698ZM13.6544 11.8545C11.5131 11.8545 9.6977 9.82183 9.6977 7.21509C9.68218 4.67041 11.4976 2.71536 13.6544 2.71536C15.8266 2.71536 17.611 4.63938 17.611 7.18406C17.611 9.7908 15.8111 11.8545 13.6544 11.8545ZM3.97218 29H23.321C26.0054 29 27.2932 28.1466 27.2932 26.3157C27.2932 22.0487 21.9711 16.3697 13.6544 16.3697C5.33761 16.3697 0 22.0487 0 26.3157C0 28.1466 1.28785 29 3.97218 29ZM3.49117 26.2846C3.11878 26.2846 2.97913 26.1605 2.97913 25.8812C2.97913 23.5072 6.81166 19.0851 13.6544 19.0851C20.4815 19.0851 24.3141 23.5072 24.3141 25.8812C24.3141 26.1605 24.1744 26.2846 23.802 26.2846H3.49117Z" fill="#1C1C1E"/>
</svg>
